<?xml version="1.0" encoding="UTF-8"?>
<svg id="Capa_2" data-name="Capa 2" xmlns="http://www.w3.org/2000/svg" viewBox="0 0 130 50">
  <defs>
    <style>
      .cls-1 {
        fill: #bb1233;
      }

      .cls-2 {
        fill: #fff;
        opacity: 0;
      }
    </style>
  </defs>
  <g id="Capa_1-2" data-name="Capa 1">
    <g>
      <rect class="cls-2" width="130" height="50"/>
      <g>
        <path class="cls-1" d="M73.79,38l-.97,1.38c-.06.08-.29-.05-.32-.12l-.89-1.27-.03,1.85c0,.08-.11.23-.19.23-.29.01-.23-.33-.24-1.04l-.02-1.69c0-.08.13-.26.2-.27s.25.06.29.13l1.08,1.61,1.09-1.58c.04-.06.23-.13.3-.14s.19.17.19.27v2.44c0,.09-.12.24-.19.28-.49.23-.12-1.67-.3-2.07Z"/>
        <path class="cls-1" d="M24.99,38.94c-.19-.22-.63.06-.78-.22-.04-.08.1-.28.19-.27l1.01.03c.02.32.07.65-.01.9-.15.46-.67.71-1.1.76-.96.12-1.72-.51-1.76-1.44s.54-1.64,1.46-1.68c.98-.04,1.63.77,1.22.89s-.33-.58-1.38-.42c-.48.07-.8.53-.84.95-.04.5.15.95.63,1.18.25.12.66.07.92-.01s.52-.4.42-.67Z"/>
        <path class="cls-1" d="M66.97,39.89c.01-.39.03-.85,0-1.24-.05-.55-.07-1.03.07-1.62.42.27.63.57.9.87l1.09,1.22c.15-.6-.17-1.94.22-2.06.08-.02.26.15.26.23v2.57s-.08.19-.12.19c-.06,0-.18-.04-.24-.1l-1.71-1.91c-.16.58.1,1.78-.16,2.02-.05.05-.3-.09-.3-.17Z"/>
        <path class="cls-1" d="M33.03,37.43c0-.13.05-.29.12-.32.08-.04.34.03.34.14,0,.72.02,1.44-.02,2.13-.04.63-.68.78-1.2.77s-1.15-.13-1.2-.78-.03-1.49-.02-2.17c0-.06.18-.18.24-.14s.2.16.2.25l.02,1.93c0,.28.23.44.46.46.31.02,1.08.09,1.08-.44v-1.83Z"/>
        <path class="cls-1" d="M88.87,39.67c.11,0,.26.12.25.2s-.14.2-.24.2h-1.8c-.17,0-.34-.12-.34-.32v-2.39c0-.07.08-.19.12-.24.05-.06.32.02.32.11v2.18c0,.13.15.27.26.27h1.43Z"/>
        <path class="cls-1" d="M101.14,39.74c0,.13-.1.31-.19.34s-.33-.07-.33-.16v-2.59c0-.09.12-.26.2-.27.09-.02.28.13.28.23v.84s.04,1.61.04,1.61Z"/>
        <path class="cls-1" d="M65.32,39.89c0,.07-.13.18-.19.19-.08,0-.26-.1-.26-.19v-2.62c0-.09.18-.23.26-.21.09.02.2.17.2.27v2.57Z"/>
        <path class="cls-1" d="M90.81,39.87c0,.07-.14.23-.19.21l-.26-.12v-2.63c0-.11.1-.26.19-.28.08-.02.25.12.25.22v2.6Z"/>
        <path class="cls-1" d="M85.12,39.72c0,.15-.05.31-.12.34-.09.04-.33-.04-.34-.14v-2.59c0-.08.08-.23.13-.27.06-.06.31.08.31.17v2.5Z"/>
        <path class="cls-1" d="M45.49,32.57c-1.16-.09-1.65-.03-2.48-1-.48-.57-.77-1.23-1.06-1.94l-8.42-20.74-.45-1.14c-.09-.24-.33-.4-.57-.37-.16.02-.36.2-.45.43l-7.5,19.31-.87,2.28c-.34.88-.7,1.74-1.29,2.48-.35.44-.92.59-1.46.61l-1.15.06c-.16,0-.4.16-.49.27-.1.11-.11.42-.03.53.29.37.72.26,1.11.24l1.95-.07c1.08-.04,2.13-.03,3.21,0l2.59.06c.29,0,.54-.33.51-.56-.03-.24-.25-.46-.52-.48l-1.07-.06c-.38-.02-.7-.05-1.1-.15-.51-.13-1.18-.59-1.14-1.21.07-1.08.47-2.09.88-3.07l1.34-3.22c.1-.24.37-.6.67-.6h7.45c.46,0,.79.29.97.7l1.33,3.12c.41.97.8,1.91,1.06,2.92.15.58-.09,1.13-.67,1.33-.41.14-.87.17-1.31.19l-.87.04c-.27.01-.55.05-.77.24-.12.1-.18.37-.14.49.19.51,1.21.35,1.77.33l1.6-.07c1.38-.06,2.75-.05,4.14,0l1.89.07c.51.02,1.91.21,1.93-.39.01-.37-.26-.62-.6-.65ZM34.7,22.93h-6.49c-.1,0-.42-.15-.38-.28l3.21-8.4c.07-.19.2-.39.33-.55.08-.06.29.13.34.24l2.47,6.13c.35.86.69,1.63.99,2.53.04.12-.29.32-.47.32Z"/>
        <path class="cls-1" d="M82.8,23.25c-.54-4.61-4.23-7.79-8.78-8.19-3.06-.27-6.05.3-8.43,2.32-.49.42-.87.82-1.26,1.33-2.77,3.61-2.5,8.69.6,12.01,4.08,4.37,11.5,4.27,15.48-.07,1.86-2.03,2.71-4.68,2.39-7.4ZM79.64,25.06c-.27,4.21-3.05,8.58-7.72,7.98-1.6-.21-3.16-1.21-4.12-2.47-1.63-2.12-2.41-4.76-2.16-7.43.34-3.59,2.53-6.9,6.39-7.27,2.01-.19,4,.6,5.33,2.13.85.98,1.43,2.08,1.8,3.32.36,1.22.56,2.48.48,3.74Z"/>
        <path class="cls-1" d="M110.75,31.02c-.03-.08-.29-.17-.37-.11l-.83.66c-.47.38-1.28.45-1.69-.06-.34-.42-.57-1.04-.57-1.63l-.04-11.83c0-.87-.28-1.61-.98-2.14-.69-.52-1.58-.8-2.47-.87-.8-.07-1.61-.1-2.41.01-2.21.3-4.26,1.17-5.94,2.61-.26.22-.47.45-.73.64.52-.89.43-1.95-.33-2.53-1.66-1.27-3.95-.19-5.22,1.25l-1.16,1.32s-.17.11-.22.09c-.05-.02-.1-.15-.1-.25v-2.74c0-.15-.1-.38-.22-.43-.11-.04-.43-.03-.52.05l-1.06,1c-1.39,1.3-3.33,1.51-3.74,2.11-.06.09-.02.39.09.43.73.3,1.7-.09,2.12.45.24.32.37.81.37,1.26v10.42c0,.49-.16.99-.43,1.34-.6.74-1.64.25-2.28.63-.18.11-.29.4-.24.55.17.51,1.02.35,1.62.32l1.3-.06c1.11-.06,2.21-.06,3.32,0l.86.04,1.7.05c.23,0,.47-.19.51-.4.03-.15-.12-.44-.3-.51-.84-.34-2.1.11-2.68-.72-.28-.4-.4-.93-.4-1.45v-9.01c0-1.32.55-2.46,1.46-3.37.4-.4.85-.78,1.43-.83,1.42-.11,1.41,2.6,4.03,1.12-.54.7-1.05,1.33-1.07,2.21,0,.16.05.41.14.49.47.37,2.06-.26,2.65-.71.26-.2.42-.57.57-.86.3-.6.57-1.16.93-1.71.77-1.16,1.94-1.87,3.33-2.01,1.37-.14,2.76.15,3.03,1.71.04.2.12.46.12.7v3.83c0,.75-.74,1.06-1.3,1.31-1.89.87-3.73,1.71-5.57,2.69-1.77.95-4.01,2.56-3.86,4.8.06.96.55,1.74,1.31,2.28,2.17,1.52,5.37.58,7.3-.88l1.9-1.44c.65.75.67,1.47,1.43,2.29,1.17,1.26,3.18.19,4.3-.63.46-.34,1.14-.91.92-1.49ZM104.29,28.41c0,.6-.28,1.17-.66,1.62-.95,1.13-2.3,1.85-3.78,1.96-.79.06-1.57-.07-2.2-.54-.82-.61-1.08-1.54-.83-2.5.43-1.69,1.92-2.5,3.41-3.25l1.01-.51,2.72-1.33c.05-.03.18-.03.23-.01.06.03.14.17.14.26l-.02,4.3Z"/>
        <path class="cls-1" d="M82.84,38.52c-.27-.25.27-.48-.01-1.06-.08-.16-.35-.34-.57-.34h-1.8c-.13-.01-.27.16-.27.29v2.37c0,.13.15.31.27.3l1.9-.02c.34,0,.66-.35.73-.58.11-.33.03-.71-.24-.95ZM80.78,37.53c.44-.06,1.67-.2,1.69.35,0,.13-.17.34-.35.33h-1.33c-.23-.02-.24-.65-.01-.68ZM80.74,39.64c-.16-.29-.17-.75.03-1,.6.05,1.92-.27,1.9.51-.02.77-1.33.48-1.93.49Z"/>
        <path class="cls-1" d="M98.54,38.83c.42-.25.65-.53.63-.97-.02-.35-.32-.75-.74-.75l-1.93.02-.02,2.64c0,.17.1.32.28.3.11,0,.19-.16.2-.29v-.91c.32-.07.82-.22,1.06.02.41.41.44.95.87,1.19.06.04.3-.11.26-.19l-.6-1.06ZM97,38.38l-.03-.87h1.3c.21,0,.41.2.42.37.04.75-1.1.48-1.7.51Z"/>
        <path class="cls-1" d="M29.16,39.11c-.05-.09-.11-.22-.09-.29.05-.15.72-.36.55-1.08-.06-.26-.29-.62-.64-.63-.67-.02-1.28-.01-2,0v2.83c.06.07.27.15.32.1.06-.05.12-.2.12-.28l.02-.93c.29-.05.77-.18,1.01.04.45.42.46,1.03,1,1.2.04.01.16-.16.14-.21l-.43-.76ZM27.45,38.36c-.02-.32-.02-.53,0-.86.47.04,1.74-.22,1.73.45-.01.63-1.23.42-1.72.42Z"/>
        <path class="cls-1" d="M40.68,37.03c-.98-.11-1.75.55-1.76,1.52,0,.49.16.93.49,1.22.35.31.76.43,1.29.36.84-.11,1.37-.85,1.33-1.62-.03-.74-.6-1.4-1.36-1.48ZM41.31,39.32c-.29.39-.82.47-1.23.33-.44-.15-.71-.61-.7-1.1.01-.46.25-.81.62-.99.36-.18.83-.15,1.17.14.46.39.53,1.1.15,1.62Z"/>
        <path class="cls-1" d="M78.78,38.36c-.11-.95-.96-1.48-1.87-1.31-.75.14-1.26.85-1.23,1.61.03.69.56,1.39,1.28,1.47.55.06,1.02-.05,1.38-.4.34-.33.51-.8.44-1.37ZM77.12,39.71c-.63-.07-1.04-.65-.96-1.29.08-.61.57-.99,1.13-.97.6.02,1.06.54,1.04,1.21-.02.7-.63,1.12-1.21,1.05Z"/>
        <path class="cls-1" d="M103.89,37.03c-.8.07-1.34.7-1.37,1.52-.01.46.18.93.49,1.21.34.31.77.41,1.29.36.81-.08,1.31-.75,1.33-1.51.03-.99-.76-1.68-1.74-1.59ZM105.17,38.72c-.04.43-.34.86-.86.98-.52.12-.99-.18-1.19-.55-.24-.45-.17-.99.15-1.34.32-.34.83-.48,1.29-.25.44.22.66.69.62,1.16Z"/>
        <path class="cls-1" d="M37.76,37.81c-.04-.41-.43-.71-.87-.7l-1.77.02c-.03.62-.1,1.14-.07,1.72l.04.94c0,.12.09.28.19.29.09.01.26-.16.26-.26l.03-1.01c.56-.02,1.06.01,1.58-.05.45-.05.66-.57.62-.94ZM35.57,38.36c-.02-.31-.02-.53,0-.86.61.06,1.57-.23,1.73.39.16.65-1.31.5-1.72.47Z"/>
        <path class="cls-1" d="M95.23,39.9l-1.3-2.61c-.05-.1-.23-.21-.32-.2-.07.01-.21.12-.25.19l-1.32,2.65c.09.08.27.16.33.12.3-.19.24-.45.56-.78h1.42s.34.56.34.56c.06.1.17.2.25.24.06.03.31-.11.27-.18ZM93.11,38.79l.53-1.02.54,1.01c-.37.16-.68.14-1.06.01Z"/>
        <path class="cls-1" d="M60.74,18.18h2.36c.63,0,.45-.94.32-1.27-.1-.25-.43-.39-.69-.39l-3.62-.02c-1.33,0-2.91-1.89-6.89-1.44-3.26.37-6.53,2.58-6.75,6.09-.2,3.14,1.82,4.85,4.24,6.35.06.04.2.18.17.25-.25.52-3.4,1.58-4.1,1.81-.23.08-.55.33-.43.57.35.69.97,1.13,1.53,1.62.37.32,1.6,1.34,1.53,1.7-.06.3-1.03.82-1.34.97-.86.43-1.7.85-2.41,1.49-1.21,1.08-1.37,2.79-.34,4.05.21.26.46.54.73.75,2.07,1.64,5.4,2.07,7.95,1.88,3.83-.29,9.44-1.95,10.11-6.38.19-1.25-.12-2.42-1-3.31-.7-.7-1.57-1.19-2.55-1.44-.73-.19-1.46-.39-2.23-.39l-6.4-.03c-.52,0-2.39-.4-2.19-1.38.21-1.02,2.82-1.53,3.74-1.54,1.29-.02,2.53-.08,3.77-.46,1.21-.37,2.31-.97,3.15-1.91.87-.97,1.41-2.15,1.58-3.43.19-1.4-.16-2.57-.79-3.79.09-.17.34-.34.54-.34ZM49.6,33.95c.19-.12.45-.3.68-.3l5.09.02c1.18,0,2.31.18,3.36.68,1.2.57,1.85,1.72,1.71,3.07-.31,2.94-4.11,4.02-6.61,4.26-2.42.23-5.45-.29-6.73-2.59-.57-1.03-.54-2.25.17-3.21.62-.82,1.44-1.39,2.31-1.93ZM56.79,25.33c-.88,1.38-2.47,2.06-4.13,1.88-1.22-.13-2.18-.79-2.84-1.74-1.7-2.43-1.64-6.4.6-8.49.93-.86,2.09-1.25,3.35-1.15,1.27.11,2.33.87,3.02,1.95,1.45,2.27,1.46,5.26,0,7.54Z"/>
      </g>
    </g>
  </g>
</svg>