<?xml version="1.0" encoding="UTF-8"?>
<svg id="Capa_2" data-name="Capa 2" xmlns="http://www.w3.org/2000/svg" viewBox="0 0 130 50">
  <defs>
    <style>
      .cls-1 {
        fill: #5e5e5e;
      }

      .cls-2 {
        fill: #fff;
        opacity: 0;
      }

      .cls-3 {
        fill: #f90;
      }

      .cls-4 {
        fill: #252f3e;
      }
    </style>
  </defs>
  <g id="Capa_1-2" data-name="Capa 1">
    <g>
      <g>
        <path class="cls-4" d="M23.91,21.76c0,.49.05.88.14,1.17.11.29.24.61.42.95.07.11.09.21.09.3,0,.13-.08.26-.25.4l-.83.55c-.12.08-.24.12-.34.12-.13,0-.26-.07-.4-.18-.18-.2-.34-.41-.47-.62-.13-.22-.26-.47-.41-.78-1.03,1.21-2.32,1.82-3.87,1.82-1.11,0-1.99-.32-2.64-.95-.65-.63-.98-1.48-.98-2.53,0-1.12.4-2.03,1.2-2.72s1.87-1.03,3.23-1.03c.45,0,.91.04,1.4.11s.99.17,1.52.29v-.96c0-1-.21-1.7-.62-2.11-.42-.41-1.13-.61-2.15-.61-.46,0-.94.05-1.42.17s-.96.26-1.42.45c-.21.09-.37.14-.46.17s-.16.04-.21.04c-.18,0-.28-.13-.28-.41v-.65c0-.21.03-.37.09-.46s.18-.18.37-.28c.46-.24,1.01-.43,1.66-.59.65-.17,1.33-.25,2.06-.25,1.57,0,2.72.36,3.45,1.07.72.71,1.09,1.79,1.09,3.24v4.27h.03ZM18.56,23.76c.43,0,.88-.08,1.36-.24s.9-.45,1.25-.84c.21-.25.37-.53.45-.84.08-.32.13-.7.13-1.15v-.55c-.38-.09-.79-.17-1.21-.22s-.83-.08-1.24-.08c-.88,0-1.53.17-1.96.53s-.65.86-.65,1.52c0,.62.16,1.08.49,1.4.32.33.78.49,1.38.49ZM29.14,25.18c-.24,0-.4-.04-.5-.13-.11-.08-.2-.26-.28-.51l-3.1-10.19c-.08-.26-.12-.43-.12-.53,0-.21.11-.33.32-.33h1.29c.25,0,.42.04.51.13.11.08.18.26.26.51l2.21,8.73,2.06-8.73c.07-.26.14-.43.25-.51s.29-.13.53-.13h1.05c.25,0,.42.04.53.13.11.08.2.26.25.51l2.08,8.83,2.28-8.83c.08-.26.17-.43.26-.51.11-.08.28-.13.51-.13h1.23c.21,0,.33.11.33.33,0,.07-.01.13-.03.21s-.04.18-.09.33l-3.18,10.19c-.08.26-.17.43-.28.51s-.28.13-.5.13h-1.13c-.25,0-.42-.04-.53-.13s-.2-.26-.25-.53l-2.04-8.5-2.03,8.49c-.07.26-.14.43-.25.53s-.29.13-.53.13h-1.13ZM46.08,25.54c-.69,0-1.37-.08-2.03-.24s-1.17-.33-1.52-.53c-.21-.12-.36-.25-.41-.37s-.08-.25-.08-.37v-.67c0-.28.11-.41.3-.41.08,0,.16.01.24.04.08.03.2.08.33.13.45.2.94.36,1.45.46.53.11,1.04.16,1.57.16.83,0,1.48-.14,1.92-.43.45-.29.69-.71.69-1.25,0-.37-.12-.67-.36-.92-.24-.25-.69-.47-1.33-.69l-1.91-.59c-.96-.3-1.67-.75-2.11-1.34-.43-.58-.66-1.23-.66-1.91,0-.55.12-1.04.36-1.46s.55-.79.95-1.08c.4-.3.84-.53,1.37-.69s1.08-.22,1.66-.22c.29,0,.59.01.88.05.3.04.58.09.86.14.26.07.51.13.75.21s.42.16.55.24c.18.11.32.21.4.33.08.11.12.25.12.43v.62c0,.28-.11.42-.3.42-.11,0-.28-.05-.5-.16-.75-.34-1.59-.51-2.53-.51-.75,0-1.34.12-1.75.37s-.62.63-.62,1.17c0,.37.13.69.4.94s.75.5,1.45.72l1.87.59c.95.3,1.63.72,2.04,1.27s.61,1.16.61,1.85c0,.57-.12,1.08-.34,1.53-.24.45-.55.84-.96,1.16-.41.33-.9.57-1.46.74-.59.18-1.21.28-1.88.28Z"/>
        <path class="cls-3" d="M48.57,31.95c-4.34,3.2-10.64,4.9-16.05,4.9-7.59,0-14.43-2.81-19.6-7.47-.41-.37-.04-.87.45-.58,5.59,3.24,12.48,5.21,19.61,5.21,4.81,0,10.1-1,14.96-3.06.72-.33,1.34.47.63,1ZM50.37,29.89c-.55-.71-3.66-.34-5.07-.17-.42.05-.49-.32-.11-.59,2.48-1.74,6.55-1.24,7.02-.66.47.59-.13,4.67-2.45,6.62-.36.3-.7.14-.54-.25.53-1.3,1.7-4.24,1.15-4.94Z"/>
      </g>
      <g>
        <rect class="cls-2" width="130" height="50"/>
        <g>
          <path class="cls-1" d="M65.54,23.71c-.13,0-.18-.04-.19-.2-.07-.96-.88-1.76-2.35-1.76s-2.71,1.03-2.71,2.81,1.16,2.81,2.71,2.81c1.46,0,2.25-.7,2.35-1.63.01-.18.05-.22.2-.22h.67c.07,0,.19-.02.19.1,0,1.43-1.26,2.66-3.42,2.66s-3.77-1.39-3.77-3.72,1.63-3.72,3.77-3.72c2.28,0,3.42,1.46,3.42,2.76,0,.06-.05.12-.18.12h-.7Z"/>
          <path class="cls-1" d="M69.11,24.89v2.35h4.56c.07,0,.17.1.17.17v.58c0,.07-.1.17-.17.17h-5.47c-.07,0-.14-.07-.14-.14v-6.91c0-.07.07-.14.14-.14h5.35c.07,0,.17.1.17.17v.58c0,.07-.1.17-.17.17h-4.44v2.11h4.08c.07,0,.17.1.17.17v.58c0,.07-.1.17-.17.17h-4.08Z"/>
          <path class="cls-1" d="M75.35,21.1c0-.07.07-.14.14-.14h3.07c1.69,0,2.93.84,2.93,2.36,0,1.16-.74,1.9-1.85,2.17v.02s.25.23.46.52l1.37,1.9c.07.1.08.13.08.16,0,.05-.02.07-.1.07h-.98c-.06,0-.13-.04-.17-.08l-1.78-2.46h-2.12v2.4c0,.07-.07.14-.14.14h-.77c-.07,0-.14-.07-.14-.14v-6.91ZM76.4,21.87v2.89h2.13c1.1,0,1.89-.5,1.89-1.44s-.78-1.45-1.89-1.45h-2.13Z"/>
          <path class="cls-1" d="M82.09,21.7v-.58c0-.07.1-.17.17-.17h6.74c.07,0,.17.1.17.17v.58c0,.07-.1.17-.17.17h-2.84v6.14c0,.07-.07.14-.14.14h-.77c-.07,0-.14-.07-.14-.14v-6.14h-2.84c-.07,0-.17-.1-.17-.17Z"/>
          <path class="cls-1" d="M91.5,28.01c0,.07-.07.14-.14.14h-.77c-.07,0-.14-.07-.14-.14v-6.91c0-.07.07-.14.14-.14h.77c.07,0,.14.07.14.14v6.91Z"/>
          <path class="cls-1" d="M93.71,28.15c-.07,0-.14-.07-.14-.14v-6.91c0-.07.07-.14.14-.14h5.23c.07,0,.17.1.17.17v.58c0,.07-.1.17-.17.17h-4.32v2.35h3.84c.07,0,.17.1.17.17v.58c0,.07-.1.17-.17.17h-3.84v2.88c0,.07-.07.14-.14.14h-.77Z"/>
          <path class="cls-1" d="M101.55,28.01c0,.07-.07.14-.14.14h-.77c-.07,0-.14-.07-.14-.14v-6.91c0-.07.07-.14.14-.14h.77c.07,0,.14.07.14.14v6.91Z"/>
          <path class="cls-1" d="M104.67,24.89v2.35h4.56c.07,0,.17.1.17.17v.58c0,.07-.1.17-.17.17h-5.47c-.07,0-.14-.07-.14-.14v-6.91c0-.07.07-.14.14-.14h5.35c.07,0,.17.1.17.17v.58c0,.07-.1.17-.17.17h-4.44v2.11h4.08c.07,0,.17.1.17.17v.58c0,.07-.1.17-.17.17h-4.08Z"/>
          <path class="cls-1" d="M111.06,28.15c-.07,0-.14-.07-.14-.14v-6.91c0-.07.07-.14.14-.14h2.96c2.2,0,3.89,1.38,3.89,3.6s-1.43,3.6-3.86,3.6h-2.99ZM111.97,21.87v5.37h2.08c1.89,0,2.81-1.04,2.81-2.69s-1.21-2.69-2.83-2.69h-2.05Z"/>
        </g>
      </g>
    </g>
  </g>
</svg>