<?xml version="1.0" encoding="UTF-8"?>
<svg id="Capa_2" data-name="Capa 2" xmlns="http://www.w3.org/2000/svg" viewBox="0 0 130 50">
  <defs>
    <style>
      .cls-1 {
        fill: #333;
        fill-rule: evenodd;
      }

      .cls-2 {
        fill: #333;
        opacity: 0;
      }
    </style>
  </defs>
  <g id="Capa_1-2" data-name="Capa 1">
    <g>
      <rect class="cls-2" width="130" height="50"/>
      <g>
        <polygon class="cls-1" points="38.09 35.81 34.69 35.81 34.69 31.26 32.32 31.26 32.32 42.63 34.69 42.63 34.69 37.54 38.09 37.54 38.09 42.63 40.47 42.63 40.47 31.26 38.09 31.26 38.09 35.81 38.09 35.81"/>
        <polygon class="cls-1" points="94.71 31.26 94.71 32.99 97.93 32.99 97.93 42.63 100.31 42.63 100.31 32.99 103.53 32.99 103.53 31.26 94.71 31.26 94.71 31.26"/>
        <polygon class="cls-1" points="82.18 31.26 79.81 31.26 79.81 42.63 86.6 42.63 86.6 40.89 82.18 40.89 82.18 31.26 82.18 31.26"/>
        <path class="cls-1" d="M55.03,40.74c-.03.12-.12.15-.25.15s-.21-.05-.25-.16l-2.5-9.47h-2.77l2.87,10.37c.14.68.59,1,1.24,1h2.19c.64,0,1.06-.33,1.22-.98l2.8-10.39h-2.1l-2.46,9.48h0Z"/>
        <path class="cls-1" d="M24.33,33.03v7.82c0,1.26.65,1.78,1.77,1.78h5.31v-1.74h-3.84c-.66,0-.87-.16-.87-.87v-6.16c0-.68.16-.87.87-.87h3.84s0-1.73,0-1.73h-5.3c-1.21,0-1.78.63-1.78,1.78h0Z"/>
        <path class="cls-1" d="M44.26,40.02v-2.48h4.72v-1.74h-4.71v-1.95c0-.66.14-.87.87-.87h3.89s0-1.73,0-1.73h-5.36c-1.23,0-1.77.61-1.77,1.78v7.82c0,1.2.58,1.78,1.77,1.78h5.86v-1.74h-4.39c-.66,0-.87-.15-.87-.87h0Z"/>
        <path class="cls-1" d="M66.51,37.82c1.1,0,1.77-.5,1.77-1.78v-3.01c0-1.19-.56-1.78-1.78-1.78h-6.61s0,11.37,0,11.37h2.37v-9.63h2.77c.74,0,.87.21.87.87v1.39c0,.67-.18.87-.87.87h-1.3c-.5,0-.79.3-.79.79,0,.25.13.42.22.6l3,5.12h2.94l-3.14-4.8h.53Z"/>
        <path class="cls-1" d="M76.6,31.26h-5.23c-1.25,0-1.77.64-1.77,1.77v7.82c0,1.29.69,1.78,1.77,1.78h2.63s2.6,0,2.6,0c1.14,0,1.77-.54,1.77-1.78v-7.82c0-1.16-.55-1.77-1.78-1.77h0ZM75.13,40.89h-2.3c-.68,0-.87-.19-.87-.87v-6.16c0-.59.08-.87.87-.87h2.3c.62,0,.87.11.87.87v6.16c0,.73-.22.87-.87.87h0Z"/>
        <path class="cls-1" d="M89.43,40.02v-2.48h4.72v-1.74h-4.71v-1.95c0-.66.14-.87.87-.87h3.89s0-1.73,0-1.73h-5.36c-1.23,0-1.77.61-1.77,1.78v7.82c0,1.2.58,1.78,1.77,1.78h5.86v-1.74h-4.39c-.66,0-.87-.15-.87-.87h0Z"/>
        <path class="cls-1" d="M84.7,10.61h-12.64c-.32,0-.53-.09-.53-.54v-1.87c0-.54-.29-.83-.82-.83h-14.47c-.54,0-.82.3-.82.82v1.87c0,.4-.19.54-.53.54h-8.28c-.63,0-1,.3-1.2.7l-4.03,7.88c-.05.1-.08.22-.08.33,0,.31.2.72.77.72h12.82c.4,0,.53.18.53.54v1.87c0,.56.33.82.82.82h7.23s7.23,0,7.23,0c.49,0,.82-.24.82-.82v-1.87c0-.38.16-.54.53-.54h8.04c.55,0,.95-.15,1.23-.66l3.99-7.79c.09-.17.15-.26.15-.46,0-.53-.46-.71-.77-.71h0ZM81.51,13.75l-1.92,3.76c-.12.22-.33.23-.48.23h-9.54c-.4,0-.54.18-.54.54v2.16c0,.36-.16.53-.54.53h-10.02c-.34,0-.54-.12-.54-.54v-2.16c0-.4-.18-.54-.54-.54h-11.7c-.29,0-.49-.18-.49-.43,0-.07.02-.14.05-.2l1.92-3.76c.07-.13.19-.22.48-.22h9.73c.34,0,.54-.13.54-.54v-2.16c0-.38.17-.54.54-.54h10.02c.36,0,.54.16.54.54v2.16c0,.37.17.54.54.54h11.51c.37,0,.49.24.49.43,0,.07-.02.14-.05.2h0Z"/>
        <path class="cls-1" d="M73.4,9.03c0-.19-.16-.24-.32-.24h-.39v.89h.12v-.39h.17l.25.39h.14l-.26-.4c.16,0,.28-.08.28-.25h0ZM73.06,9.19h-.23v-.29h.24c.09,0,.22.01.22.13,0,.09-.04.16-.22.16h0Z"/>
        <path class="cls-1" d="M73,8.45c-.44,0-.8.36-.8.79s.35.79.8.79h0c.44,0,.79-.35.79-.79s-.35-.79-.79-.79h0ZM73,9.91h0c-.37,0-.67-.3-.67-.67s.3-.66.67-.66.66.3.66.66-.3.67-.66.67h0Z"/>
        <path class="cls-1" d="M105.28,31.89c0-.19-.16-.24-.32-.24h-.39v.89h.12v-.39h.17l.25.39h.14l-.26-.4c.16,0,.28-.08.28-.25h0ZM104.94,32.05h-.23v-.29h.24c.09,0,.22.01.22.13,0,.09-.04.16-.22.16h0Z"/>
        <path class="cls-1" d="M104.87,31.31c-.44,0-.8.36-.8.79s.35.79.8.79h0c.44,0,.79-.35.79-.79s-.35-.79-.79-.79h0ZM104.87,32.77h0c-.37,0-.67-.3-.67-.67s.3-.66.67-.66.66.3.66.66-.3.67-.66.67h0Z"/>
      </g>
    </g>
  </g>
</svg>