<?xml version="1.0" encoding="UTF-8"?>
<svg id="Capa_2" data-name="Capa 2" xmlns="http://www.w3.org/2000/svg" viewBox="0 0 130 50">
  <defs>
    <style>
      .cls-1 {
        fill: #00ab4e;
      }

      .cls-2 {
        fill: #487cbe;
      }

      .cls-3 {
        fill: #ee372c;
      }

      .cls-4 {
        fill: none;
      }

      .cls-5 {
        fill: #fff;
        opacity: 0;
      }

      .cls-6 {
        fill: #fcb514;
      }

      .cls-7 {
        fill: #777677;
      }
    </style>
  </defs>
  <g id="Capa_1-2" data-name="Capa 1">
    <g>
      <rect class="cls-5" width="130" height="50"/>
      <g>
        <g>
          <path class="cls-7" d="M42.46,32.78v6.16h-1.95v-15.2h5.18c1.32,0,2.43.44,3.35,1.32.93.88,1.4,1.95,1.4,3.21s-.47,2.36-1.4,3.23c-.91.86-2.02,1.3-3.35,1.3h-3.23ZM42.46,25.6v5.31h3.27c.78,0,1.42-.26,1.93-.79.52-.52.79-1.15.79-1.87s-.26-1.32-.79-1.85c-.51-.54-1.15-.81-1.93-.81h-3.27Z"/>
          <path class="cls-7" d="M55.67,28.19c1.44,0,2.58.39,3.42,1.16.83.77,1.25,1.83,1.25,3.17v6.41h-1.87v-1.44h-.08c-.81,1.19-1.88,1.78-3.23,1.78-1.15,0-2.11-.34-2.88-1.02-.77-.68-1.16-1.53-1.16-2.55,0-1.08.41-1.93,1.22-2.57.81-.64,1.9-.96,3.26-.96,1.16,0,2.12.21,2.87.64v-.45c0-.68-.27-1.26-.81-1.73-.54-.47-1.17-.71-1.89-.71-1.09,0-1.95.46-2.59,1.38l-1.72-1.08c.95-1.36,2.35-2.04,4.2-2.04ZM53.14,35.75c0,.51.22.93.65,1.27.43.34.94.51,1.52.51.82,0,1.55-.3,2.2-.91.64-.61.97-1.32.97-2.14-.61-.48-1.46-.72-2.55-.72-.79,0-1.45.19-1.99.57-.53.38-.8.86-.8,1.42Z"/>
          <path class="cls-7" d="M62.55,28.53h1.87v1.7h.08c.58-1.33,1.78-2,3.59-2l.4.04v2.04l-.87-.08c-.91,0-1.65.28-2.24.84-.59.56-.88,1.27-.88,2.13v5.73h-1.95v-10.4ZM74.73,39.11c-.85,0-1.55-.26-2.11-.79-.56-.52-.85-1.25-.86-2.19v-5.82h-1.83v-1.78h1.83v-3.18h1.95v3.18h2.55v1.78h-2.55v5.18c0,.69.13,1.16.4,1.41.27.25.57.37.91.37.16,0,.31-.02.46-.05.15-.04.29-.08.41-.14l.62,1.74c-.51.18-1.1.28-1.78.28Z"/>
          <path class="cls-7" d="M78.23,28.53h1.87v1.44h.08c.3-.51.75-.93,1.37-1.27.62-.34,1.26-.51,1.92-.51,1.27,0,2.25.36,2.94,1.09.69.73,1.03,1.77,1.03,3.11v6.54h-1.95v-6.41c-.04-1.7-.9-2.55-2.57-2.55-.78,0-1.43.32-1.95.94-.52.63-.79,1.38-.79,2.26v5.75h-1.95v-10.4Z"/>
          <path class="cls-7" d="M94.41,39.28c-1.53,0-2.79-.52-3.78-1.57-.99-1.05-1.49-2.37-1.49-3.97s.48-2.9,1.44-3.96c.96-1.05,2.19-1.58,3.69-1.58s2.77.5,3.68,1.5c.91,1,1.37,2.4,1.37,4.19l-.02.21h-8.17c.03,1.02.37,1.84,1.02,2.46.65.62,1.43.93,2.34.93,1.25,0,2.22-.62,2.93-1.87l1.74.85c-.47.88-1.11,1.56-1.94,2.06s-1.77.74-2.81.74ZM91.29,32.48h5.97c-.06-.72-.35-1.32-.88-1.79-.53-.47-1.24-.71-2.13-.71-.74,0-1.37.23-1.9.68-.53.45-.88,1.06-1.05,1.83Z"/>
          <path class="cls-7" d="M103.08,38.94h-1.95v-10.4h1.87v1.7h.08c.2-.55.61-1.02,1.22-1.41.62-.39,1.22-.58,1.82-.58s1.05.08,1.44.25l-.59,1.89c-.24-.1-.62-.15-1.15-.15-.74,0-1.38.3-1.92.89-.55.59-.82,1.29-.82,2.08v5.73Z"/>
        </g>
        <path class="cls-4" d="M53.08,15.12c-.5,0-.92.18-1.26.54-.34.35-.51.8-.51,1.35s.17.99.51,1.35c.34.36.76.54,1.26.54s.9-.18,1.24-.54c.35-.37.52-.82.52-1.35s-.17-1-.51-1.35c-.34-.36-.76-.54-1.26-.54Z"/>
        <path class="cls-4" d="M66.74,15.12c-.47,0-.88.19-1.23.56-.34.36-.51.81-.51,1.35s.17.98.5,1.34c.34.36.75.54,1.24.54s.86-.18,1.18-.53c.32-.37.49-.82.49-1.35s-.16-.99-.49-1.36c-.32-.36-.71-.54-1.18-.54Z"/>
        <path class="cls-4" d="M59.92,15.12c-.5,0-.92.18-1.26.54-.34.35-.51.8-.51,1.35s.17.99.51,1.35c.34.36.76.54,1.26.54s.9-.18,1.24-.54c.35-.37.52-.82.52-1.35s-.17-1-.51-1.35c-.34-.36-.76-.54-1.26-.54Z"/>
        <path class="cls-4" d="M76.32,15.28c-.21-.12-.45-.18-.72-.18-.43,0-.81.17-1.16.52-.33.34-.49.77-.47,1.3l2.79-1.16c-.08-.2-.22-.36-.44-.48Z"/>
        <path class="cls-2" d="M44.93,14.85v1.33h3.17c-.1.84-.45,1.49-1.04,1.95-.58.46-1.29.69-2.13.69-.98,0-1.8-.34-2.47-1.03-.67-.68-1.01-1.51-1.01-2.5s.34-1.82,1.01-2.5c.67-.69,1.5-1.03,2.47-1.03.92,0,1.71.32,2.39.95l.94-.94c-.94-.89-2.05-1.34-3.33-1.34-.87,0-1.69.22-2.46.66-.77.43-1.37,1.03-1.81,1.79-.43.74-.65,1.54-.65,2.4s.22,1.67.65,2.42c.43.75,1.04,1.34,1.81,1.78.77.44,1.59.66,2.46.66,1.31,0,2.4-.41,3.26-1.23.85-.81,1.28-1.89,1.28-3.23,0-.32-.02-.59-.07-.83h-4.46Z"/>
        <path class="cls-3" d="M53.08,13.89c-.89,0-1.64.3-2.24.9-.6.59-.9,1.33-.9,2.23s.3,1.62.91,2.23c.6.6,1.34.9,2.23.9s1.63-.3,2.23-.9c.61-.61.91-1.35.91-2.23s-.3-1.63-.91-2.23c-.6-.6-1.34-.9-2.23-.9ZM54.32,18.37c-.34.36-.75.54-1.24.54s-.92-.18-1.26-.54c-.34-.36-.51-.81-.51-1.35s.17-1,.51-1.35c.34-.36.76-.54,1.26-.54s.92.18,1.26.54c.34.35.51.8.51,1.35s-.17.98-.52,1.35Z"/>
        <rect class="cls-1" x="70.57" y="10.77" width="1.37" height="9.19"/>
        <path class="cls-6" d="M59.92,13.89c-.89,0-1.64.3-2.24.9-.6.59-.9,1.33-.9,2.23s.3,1.62.91,2.23c.6.6,1.34.9,2.23.9s1.63-.3,2.23-.9c.61-.61.91-1.35.91-2.23s-.3-1.63-.91-2.23c-.6-.6-1.34-.9-2.23-.9ZM61.17,18.37c-.34.36-.75.54-1.24.54s-.92-.18-1.26-.54c-.34-.36-.51-.81-.51-1.35s.17-1,.51-1.35c.34-.36.76-.54,1.26-.54s.92.18,1.26.54c.34.35.51.8.51,1.35s-.17.98-.52,1.35Z"/>
        <path class="cls-3" d="M75.71,18.91c-.69,0-1.19-.32-1.52-.95l4.18-1.73-.14-.36c-.11-.29-.25-.56-.43-.81-.18-.24-.38-.46-.61-.63-.23-.18-.48-.31-.76-.41-.28-.09-.57-.14-.88-.14-.84,0-1.54.3-2.11.89-.56.6-.84,1.35-.84,2.24s.3,1.63.89,2.23c.59.6,1.33.9,2.21.9,1.11,0,1.97-.46,2.6-1.39l-1.07-.71c-.39.58-.9.86-1.54.86ZM74.44,15.62c.35-.35.73-.52,1.16-.52.27,0,.51.06.72.18.21.12.36.28.44.48l-2.79,1.16c-.02-.53.14-.96.47-1.3Z"/>
        <path class="cls-2" d="M68.32,14.59h-.05c-.39-.47-.94-.7-1.65-.7-.81,0-1.51.31-2.11.92-.59.62-.89,1.35-.89,2.21s.3,1.59.89,2.2c.61.61,1.31.91,2.11.91.7,0,1.25-.24,1.65-.71h.05v.32c0,1.31-.56,1.97-1.67,1.97-.36,0-.67-.1-.95-.31-.28-.21-.49-.47-.63-.81l-1.2.5c.12.28.27.53.45.75.18.23.39.42.63.58.24.16.5.29.79.38.28.09.58.14.9.14.93,0,1.66-.28,2.18-.85.52-.56.79-1.37.79-2.41v-5.61h-1.3v.51ZM67.93,18.38c-.32.36-.72.53-1.18.53-.49,0-.9-.18-1.24-.54-.33-.36-.5-.81-.5-1.34s.17-.99.51-1.35c.35-.37.76-.56,1.23-.56s.87.18,1.18.54c.32.37.49.83.49,1.36s-.16.98-.49,1.35Z"/>
        <rect class="cls-2" x="22.44" y="6.07" width="9.96" height="37.86"/>
      </g>
    </g>
  </g>
</svg>