<?xml version="1.0" encoding="UTF-8"?>
<svg id="Capa_2" xmlns="http://www.w3.org/2000/svg" version="1.1" viewBox="0 0 130 50">
  <!-- Generator: Adobe Illustrator 30.3.0, SVG Export Plug-In . SVG Version: 2.1.1 Build 104)  -->
  <defs>
    <style>
      .st0 {
        fill: #f8761f;
      }

      .st1 {
        fill: #45535e;
      }
    </style>
  </defs>
  <path class="st1" d="M10.4,15.1h3.8v8.5h8v-8.5h3.8v20.7h-3.8v-8.6h-8v8.6h-3.8V15.1h0Z"/>
  <path class="st1" d="M38.1,29.1c0,1.7-1.4,3.2-3.2,3.2s-3.2-1.4-3.2-3.2v-8.9h-3.6v8.9c0,3.7,3,6.8,6.8,6.8s6.8-3,6.8-6.8v-8.9h-3.6v8.9"/>
  <path class="st1" d="M51.8,20.2c-1.8,0-3,.5-4.2,1.7v-6.9h-3.6v12.7c0,4.8,3.4,8,7.3,8s8.1-3.3,8.1-7.8-3.5-7.8-7.5-7.8h0ZM51.9,32.5c-2.5,0-4.3-2-4.3-4.4s1.9-4.4,4.3-4.4,4,2,4,4.4-1.9,4.4-4,4.4h0Z"/>
  <path class="st1" d="M65.4,21.2c0-1.8,1.2-2.4,2.5-2.4s2.5.8,3.4,1.8l2.4-2.8c-1.2-1.6-3.6-2.7-5.5-2.7-3.9,0-6.8,2.3-6.8,6.1,0,7,8.6,4.8,8.6,8.7s-1.2,2.3-2.5,2.3c-2.1,0-2.8-1-3.8-2.1l-2.6,2.7c1.7,2,3.8,3.1,6.2,3.1,3.7,0,6.7-2.3,6.7-5.9,0-7.8-8.6-5.4-8.6-8.7"/>
  <path class="st1" d="M83.6,20c-3.9,0-7.3,3.3-7.3,8v12.8h3.6v-6.9c1.2,1.2,2.5,1.7,4.2,1.7,4,0,7.5-3.4,7.5-7.8s-3.8-7.8-8.1-7.8h0ZM84.2,32.3c-2.5,0-4.3-2.1-4.3-4.4s1.9-4.4,4.3-4.4,4,2,4,4.4-1.9,4.4-4,4.4h0Z"/>
  <path class="st1" d="M118.3,32.5c-2.1,0-2.7-.9-2.7-2.3v-6.3h3.3v-3.2h-3.3v-4.2l-3.7,1.6v12.8c0,3.3,2.3,4.9,5.3,4.9s1.1,0,1.4-.1l.9-3.3c-.4,0-.9,0-1.3,0"/>
  <path class="st0" d="M108.7,24.1c-.7-1.2-1.7-2.2-2.9-2.9-.9-.5-1.9-.9-2.9-1v-3.8c1.1-.5,1.7-1.5,1.7-2.6s-1.3-2.9-2.9-2.9-2.9,1.3-2.9,2.9.6,2.2,1.7,2.6v3.8c-.9.1-1.7.4-2.5.8-1.6-1.3-7.1-5.4-10.2-7.8,0-.3.1-.5.1-.8,0-1.8-1.4-3.2-3.2-3.2s-3.2,1.4-3.2,3.2,1.4,3.2,3.2,3.2,1.2-.2,1.6-.5l.7.5,9.2,6.6c-.5.4-.9,1-1.3,1.5-.7,1.2-1.2,2.4-1.2,3.8v.3c0,1,.2,1.9.5,2.8.3.8.7,1.4,1.2,2.1l-3,3.1c-.3,0-.6-.2-.8-.2-.7,0-1.3.3-1.7.7-.5.5-.7,1.1-.7,1.7,0,.7.3,1.3.7,1.7.5.5,1.1.7,1.7.7s1.3-.3,1.7-.7c.5-.5.7-1.1.7-1.7s0-.5-.1-.7l3.1-3.1c.4.3.9.5,1.4.8,1,.4,2.1.7,3.3.7h.2c1.3,0,2.6-.3,3.7-.9,1.2-.7,2.2-1.6,2.9-2.8.7-1.2,1.1-2.5,1.1-3.9h0c0-1.5-.3-2.8-1-4h0ZM104.9,30.7c-.9.9-1.8,1.5-2.9,1.5h-.2c-.6,0-1.3-.2-1.9-.5-.7-.4-1.2-.9-1.6-1.5-.4-.6-.7-1.3-.7-2v-.2c0-.7.1-1.4.5-2,.4-.7.9-1.2,1.5-1.7.6-.4,1.3-.6,2.1-.6h0c.7,0,1.4.1,2,.5.6.3,1.2.8,1.6,1.4.4.6.6,1.3.7,2,0,.1,0,.3,0,.4,0,1-.4,1.9-1.1,2.7h0Z"/>
</svg>