<?xml version="1.0" encoding="UTF-8"?>
<svg id="Capa_2" data-name="Capa 2" xmlns="http://www.w3.org/2000/svg" viewBox="0 0 130 50">
  <defs>
    <style>
      .cls-1 {
        fill: #01319f;
        fill-rule: evenodd;
      }

      .cls-2 {
        fill: #fff;
        opacity: 0;
      }
    </style>
  </defs>
  <g id="Capa_1-2" data-name="Capa 1">
    <g>
      <rect class="cls-2" width="130" height="50"/>
      <g id="Page-1">
        <g id="header-left">
          <g id="Menu-principal">
            <g id="logo">
              <path id="imagotipo" class="cls-1" d="M29.73,21.58c-.97.97-2.89,2.8-4.44,4.33-3.64,3.31-3.7,5.45-3.5,6.45-2.68-3.13-.55-5.48.81-6.81.63-.61,4.49-4.4,5.38-5.24,3.13-2.98,3.13-3.87,3.13-3.87,1.19,2.8-.4,4.18-1.37,5.15h0ZM29.64,26.23c-.95.93-.57.56-2.11,2.06-2.51,2.44-2.52,4.07-2.52,4.07-1.4-1.53-.54-4.07.97-5.54.63-.61,1.79-1.71,2.62-2.49,1.7-1.6,2.23-2.07,2.47-2.69.65,2.68-.78,3.91-1.41,4.59h0ZM19.25,24.3c.7-.67,5.12-5,5.97-5.82,2.74-2.66,2.62-3.49,2.62-3.49,1.18,2.8-.44,4.33-1.42,5.29-1.06,1.05-3.76,3.68-5.31,5.19-3.89,3.81-2.5,6.89-2.5,6.89-2.47-1.82-1.92-5.59.63-8.07h0ZM17.63,21.31c.7-.69,4.46-4.36,5.73-5.59,2.67-2.59,2.52-3.62,2.64-4.16,1.87,1.91.72,3.85-.29,4.86-.89.88-5.07,5.08-6.76,6.62-.43.39-3.24,2.96-3.06,5.33-1.57-1.98-1.15-4.48,1.74-7.06h0ZM14.2,20.26c.63-.65,5.41-5.29,6.22-6.1,1.98-1.97,1.59-3.57,1.59-3.57,2.29,1.73,1.45,3.6.21,4.8-1.01.98-4.58,4.55-6.23,6.12-2.62,2.5-2.3,4.57-1.8,6.33-1.92-1.96-2.79-4.67.02-7.58h0ZM22.09,9.97c-7.9,0-14.31,6.37-14.31,14.23,0,7.26,5.46,13.25,12.52,14.12v-2.01c-2.36-.35-4.71-1.15-6.28-3.29h16.14c-1.57,2.14-3.92,2.93-6.28,3.29v2.01c7.06-.88,12.52-6.86,12.52-14.12,0-7.86-6.41-14.23-14.31-14.23h0Z"/>
              <g id="texto">
                <path id="Fill-2" class="cls-1" d="M49.9,18.66c.69,0,1.35-.02,2.05-.04.24,0,.33-.06.33-.3,0-.76-.39-1.5-1.06-1.5-.61,0-1.18.67-1.32,1.84h0ZM53.85,21.57c-.91,1.26-2.03,1.56-2.6,1.56-1.93,0-3.02-1.47-3.02-3.18,0-1.1.43-2.02,1.06-2.65.64-.67,1.46-1.07,2.24-1.07h.02c1.33,0,2.36,1.14,2.36,2.33,0,.3-.09.46-.4.52-.25.03-2.09.18-3.68.24.04,1.75,1.03,2.57,2.09,2.57.58,0,1.15-.21,1.67-.68l.25.36h0Z"/>
                <path id="Fill-3" class="cls-1" d="M60.38,21.56c-.67.92-1.66,1.58-2.56,1.58-1.99,0-3.15-1.53-3.15-3.14,0-1.11.54-2.14,1.51-2.87.9-.67,1.85-.89,2.42-.89h.01c.55,0,1.05.18,1.3.37.21.16.27.31.27.52-.01.39-.37.74-.6.74-.09,0-.18-.04-.31-.16-.55-.49-1.05-.71-1.51-.71-.73,0-1.46.67-1.46,2.24,0,2.01,1.42,2.66,2.14,2.66.63,0,1.08-.16,1.67-.68l.27.34"/>
                <path id="Fill-4" class="cls-1" d="M65.06,22.96v-.45c.72-.09.81-.16.81-1.2v-2.51c0-1.06-.45-1.5-1.15-1.5-.46,0-.88.24-1.3.56v3.55c0,.95.09,1.01.79,1.1v.45h-3.47v-.45c.96-.12,1.03-.16,1.03-1.14v-3.08c0-.91-.07-.97-.84-1.11v-.39c.79-.12,1.67-.31,2.48-.58v1.13c.3-.21.61-.45.96-.67.43-.28.76-.43,1.2-.43,1.2,0,1.94.86,1.94,2.33v2.84c0,.95.09,1,.9,1.1v.45h-3.35"/>
                <path id="Fill-5" class="cls-1" d="M70.87,19.31c0,1.84.67,3.27,1.72,3.27.7,0,1.36-.48,1.36-2.62,0-1.93-.6-3.18-1.69-3.18-.72,0-1.39.83-1.39,2.53h0ZM75.82,19.57c0,2.39-1.73,3.57-3.39,3.57-2.24,0-3.42-1.66-3.42-3.3,0-2.41,1.9-3.6,3.48-3.6,1.99,0,3.33,1.53,3.33,3.33h0Z"/>
                <path id="Fill-6" class="cls-1" d="M76.24,22.96v-.45c.91-.12,1.02-.19,1.02-1.16v-6.88c0-.95-.08-.98-.96-1.08v-.4c.84-.09,1.88-.31,2.6-.52v8.89c0,1,.1,1.07,1.03,1.16v.45h-3.69"/>
                <path id="Fill-7" class="cls-1" d="M83.35,15.47c.24-.64.73-2.13.84-2.41.15-.09,1.25-.21,1.48-.16l.07.15-1.94,2.62-.45-.19h0ZM82.34,19.31c0,1.84.67,3.27,1.72,3.27.7,0,1.36-.48,1.36-2.62,0-1.93-.6-3.18-1.69-3.18-.72,0-1.39.83-1.39,2.53h0ZM87.28,19.57c0,2.39-1.73,3.57-3.39,3.57-2.24,0-3.42-1.66-3.42-3.3,0-2.41,1.9-3.6,3.48-3.6,1.99,0,3.33,1.53,3.33,3.33h0Z"/>
                <path id="Fill-8" class="cls-1" d="M90.02,18.45c0,1.09.42,1.92,1.17,1.92.6,0,1.02-.59,1.02-1.72,0-1.04-.4-1.89-1.18-1.89-.51,0-1,.58-1,1.69h0ZM89.94,23.52c-.28.25-.46.55-.46.91,0,.76.78,1.43,1.94,1.43,1.23,0,1.91-.65,1.91-1.49,0-.53-.33-.86-.78-1.01-.39-.12-.75-.15-1.35-.15-.72,0-1.05.09-1.27.31h0ZM94.88,16.54c-.1.25-.39.7-.64.86l-.87-.06c.25.31.42.7.42,1.2,0,1.58-1.38,2.35-2.76,2.35-.25,0-.51-.04-.75-.07-.15.12-.3.31-.3.49,0,.25.25.56.96.55.51,0,.97-.02,1.45-.02.93,0,2.24.27,2.24,1.78,0,1.65-1.9,3.03-3.89,3.03-1.82,0-2.71-.98-2.72-1.81,0-.34.16-.59.43-.83.34-.3.79-.59,1.15-.85-.58-.19-.91-.49-1.11-.82-.15-.22-.22-.55-.21-.73.72-.27,1.2-.67,1.45-.95-.82-.28-1.4-1.03-1.4-1.98,0-1.68,1.54-2.45,2.81-2.45h.01c.57,0,1.02.13,1.54.39.75-.03,1.52-.12,2.11-.19l.07.1h0Z"/>
                <path id="Fill-9" class="cls-1" d="M95.95,14.23c0-.54.43-.95.96-.95s.94.42.94.95c0,.51-.42.94-.96.94-.51,0-.94-.43-.94-.94h0ZM95.19,22.96v-.45c.9-.09.99-.16.99-1.2v-2.99c0-.95-.07-1.01-.87-1.13v-.42c.85-.1,1.75-.3,2.51-.55v5.08c0,1.01.07,1.1,1,1.2v.45h-3.63Z"/>
                <path id="Fill-10" class="cls-1" d="M105.08,21.56c-.67.92-1.66,1.58-2.56,1.58-1.99,0-3.15-1.53-3.15-3.14,0-1.11.54-2.14,1.51-2.87.9-.67,1.85-.89,2.42-.89h.01c.55,0,1.05.18,1.3.37.21.16.27.31.27.52-.01.39-.37.74-.6.74-.09,0-.18-.04-.31-.16-.55-.49-1.05-.71-1.51-.71-.73,0-1.46.67-1.46,2.24,0,2.01,1.42,2.66,2.14,2.66.63,0,1.08-.16,1.67-.68l.27.34"/>
                <path id="Fill-11" class="cls-1" d="M107.38,19.31c0,1.84.67,3.27,1.72,3.27.7,0,1.36-.48,1.36-2.62,0-1.93-.6-3.18-1.69-3.18-.72,0-1.39.83-1.39,2.53h0ZM112.33,19.57c0,2.39-1.73,3.57-3.39,3.57-2.24,0-3.42-1.66-3.42-3.3,0-2.41,1.9-3.6,3.48-3.6,1.99,0,3.33,1.53,3.33,3.33h0Z"/>
                <path id="Fill-12" class="cls-1" d="M45.82,30.96c-.28-.52-.76-.76-1.26-.76s-1.66.45-1.66,2.68c0,1.8,1.08,2.56,1.87,2.56.37,0,.7-.12,1.05-.34v-4.13h0ZM48.54,35.93c-.36.06-1.64.24-2.72.58v-.91l-.91.56c-.45.27-.73.33-.9.33-1.26,0-2.96-1.06-2.96-3.22,0-2.02,1.79-3.67,4.02-3.67.15,0,.4.03.75.1v-1.9c0-.86-.09-.94-1.06-1.03v-.43c.9-.1,2.02-.31,2.7-.52v8.68c0,.82.09.88.69.95l.39.04v.43h0Z"/>
                <path id="Fill-13" class="cls-1" d="M50.83,32.02c.69,0,1.35-.01,2.05-.04.24,0,.33-.06.33-.3,0-.76-.39-1.5-1.06-1.5-.61,0-1.18.67-1.32,1.84h0ZM54.78,34.93c-.91,1.26-2.03,1.56-2.6,1.56-1.93,0-3.02-1.47-3.02-3.18,0-1.1.43-2.02,1.06-2.65.64-.67,1.46-1.07,2.24-1.07h.01c1.33,0,2.36,1.14,2.36,2.33,0,.3-.09.46-.4.52-.25.03-2.09.18-3.68.24.04,1.75,1.03,2.57,2.09,2.57.58,0,1.15-.21,1.67-.68l.25.36h0Z"/>
                <path id="Fill-14" class="cls-1" d="M67.07,36.31v-.48c1.15-.12,1.23-.22,1.21-1.66l-.03-5.84h-.07l-3.42,7.88h-.37l-3.15-7.71h-.06l-.19,4.01c-.06,1.23-.06,1.9-.02,2.42.04.68.36.8,1.36.89v.49h-3.56v-.49c.85-.07,1.14-.31,1.24-.86.09-.49.19-1.22.3-2.78l.22-2.99c.13-1.78.03-1.95-1.27-2.07v-.48h2.85l3.06,6.84,3.12-6.84h2.84v.48c-1.24.12-1.3.21-1.27,1.55l.13,5.5c.04,1.44.1,1.55,1.31,1.66v.48h-4.24"/>
                <path id="Fill-15" class="cls-1" d="M73.67,32.67c0,1.84.67,3.27,1.72,3.27.7,0,1.36-.48,1.36-2.62,0-1.93-.6-3.18-1.69-3.18-.72,0-1.39.83-1.39,2.53h0ZM78.61,32.92c0,2.39-1.73,3.57-3.39,3.57-2.24,0-3.42-1.66-3.42-3.3,0-2.41,1.9-3.6,3.48-3.6,1.99,0,3.33,1.53,3.33,3.33h0Z"/>
                <path id="Fill-16" class="cls-1" d="M83.41,36.31v-.45c.72-.09.81-.16.81-1.2v-2.51c0-1.06-.45-1.5-1.15-1.5-.46,0-.88.24-1.3.56v3.55c0,.95.09,1.01.79,1.1v.45h-3.47v-.45c.96-.12,1.03-.16,1.03-1.14v-3.08c0-.91-.07-.97-.84-1.11v-.39c.79-.12,1.67-.31,2.48-.58v1.13c.3-.21.61-.45.96-.67.43-.28.76-.43,1.2-.43,1.2,0,1.94.86,1.94,2.33v2.84c0,.95.09,1,.9,1.1v.45h-3.35"/>
                <path id="Fill-17" class="cls-1" d="M90.12,36.31c-.27.12-.49.18-.61.18-1.08,0-1.7-.55-1.7-1.84v-4.21h-.97l-.08-.16.42-.51h.63v-1.09l1.43-1.1.21.07v2.11h1.54c.16.16.13.55-.09.67h-1.45v3.72c0,1.17.52,1.34.85,1.34.3,0,.58-.09.82-.19l.13.46-1.14.55"/>
                <path id="Fill-18" class="cls-1" d="M93.25,32.02c.69,0,1.35-.01,2.05-.04.24,0,.33-.06.33-.3,0-.76-.39-1.5-1.06-1.5-.61,0-1.18.67-1.31,1.84h0ZM97.19,34.93c-.91,1.26-2.03,1.56-2.6,1.56-1.93,0-3.02-1.47-3.02-3.18,0-1.1.43-2.02,1.06-2.65.64-.67,1.46-1.07,2.24-1.07h.01c1.33,0,2.36,1.14,2.36,2.33,0,.3-.09.46-.4.52-.25.03-2.09.18-3.68.24.04,1.75,1.03,2.57,2.09,2.57.58,0,1.15-.21,1.67-.68l.25.36h0Z"/>
                <path id="Fill-19" class="cls-1" d="M100.36,31.17c.51-.88,1.12-1.58,1.73-1.58.57,0,.96.42.96.86s-.28.82-.64.95c-.19.09-.34.04-.43-.04-.25-.21-.43-.3-.67-.3-.33,0-.69.27-.97.95v2.75c0,.94.07,1.01,1.23,1.1v.45h-3.86v-.45c.85-.09.99-.16.99-1.1v-3.18c0-.85-.09-.91-.85-1.06v-.39c.84-.1,1.64-.28,2.5-.58v1.61h.03"/>
                <path id="Fill-20" class="cls-1" d="M106.23,31.17c.51-.88,1.12-1.58,1.73-1.58.57,0,.96.42.96.86s-.28.82-.64.95c-.19.09-.34.04-.43-.04-.25-.21-.43-.3-.67-.3-.33,0-.69.27-.97.95v2.75c0,.94.07,1.01,1.23,1.1v.45h-3.86v-.45c.85-.09.99-.16.99-1.1v-3.18c0-.85-.09-.91-.85-1.06v-.39c.84-.1,1.64-.28,2.5-.58v1.61h.03"/>
                <path id="Fill-21" class="cls-1" d="M110.81,32.02c.69,0,1.35-.01,2.05-.04.24,0,.33-.06.33-.3,0-.76-.39-1.5-1.06-1.5-.61,0-1.18.67-1.32,1.84h0ZM114.76,34.93c-.91,1.26-2.03,1.56-2.6,1.56-1.93,0-3.02-1.47-3.02-3.18,0-1.1.43-2.02,1.06-2.65.64-.67,1.46-1.07,2.24-1.07h.01c1.33,0,2.36,1.14,2.36,2.33,0,.3-.09.46-.4.52-.25.03-2.09.18-3.68.24.04,1.75,1.03,2.57,2.09,2.57.58,0,1.15-.21,1.67-.68l.25.36h0Z"/>
                <path id="Fill-23" class="cls-1" d="M122.22,30.2c-.75.13-.88.27-1.27,1.09-.37.79-.85,2.02-1.79,4.24-1,2.38-1.3,3.28-1.56,4.12-.09.31-.28.39-.52.39-.42,0-.97-.4-.97-.86,0-.24.1-.37.39-.56.55-.3.88-.62,1.18-1.16.21-.36.3-.58.36-.76.07-.24.05-.45-.05-.7-.72-1.98-1.48-3.98-1.82-4.79-.28-.7-.45-.88-1.2-1v-.43h3.45v.43c-.66.13-.76.24-.58.74l1.21,3.46c.37-.91.93-2.5,1.21-3.37.16-.52.05-.7-.73-.83v-.43h2.69v.43"/>
                <path id="Fill-25" class="cls-1" d="M40.84,13.1c-.04.88-.11,1.68-.16,2.55h.5c.18-.72.34-1.21.56-1.46.21-.29.49-.42,1.7-.42h.67v7.23c0,1.25-.15,1.37-1.42,1.48v.48h4.62v-.48c-1.35-.11-1.48-.23-1.48-1.48v-7.23h.8c.96,0,1.29.09,1.55.39.22.26.4.72.58,1.48l.49-.03c-.06-.78-.12-1.68-.14-2.51h-8.27"/>
              </g>
            </g>
          </g>
        </g>
      </g>
    </g>
  </g>
</svg>