<?xml version="1.0" encoding="UTF-8"?>
<svg id="Capa_2" data-name="Capa 2" xmlns="http://www.w3.org/2000/svg" viewBox="0 0 130 50">
  <defs>
    <style>
      .cls-1 {
        fill: #2b6dff;
      }

      .cls-2 {
        fill: #fff;
        opacity: 0;
      }
    </style>
  </defs>
  <g id="Capa_1-2" data-name="Capa 1">
    <g>
      <rect class="cls-2" width="130" height="50"/>
      <g>
        <path class="cls-1" d="M25.07,20.41l-2.18,9.33c-.43,1.85-1.39,3.12-3.45,3.08-.9-.02-1.76-.1-2.47-.72-.61-.53-1.02-1.25-1.21-2.07l-2.22-9.58c-.12-.52-.56-.75-1.08-.73-.42.02-1,.27-1,.79v12.06s-2.61,0-2.61,0l.03-12.4c0-1.48,1.06-2.61,2.44-2.89.72-.14,1.41-.14,2.13-.02,1.29.2,2.36,1.14,2.66,2.46l2.23,9.65c.12.53.44.85.94.88s.93-.27,1.05-.82l2.23-9.71c.18-.77.63-1.41,1.2-1.87.71-.56,1.56-.67,2.44-.67,1.99,0,3.35.95,3.54,3.02v12.36s-2.6.01-2.6.01v-11.87c0-.61-.42-.97-1.01-.98-.43,0-.94.15-1.07.69Z"/>
        <path class="cls-1" d="M35.88,29.19c.35.47.97.71,1.55.71h7.94s.01,2.66.01,2.66h-8.05c-.74,0-1.45-.17-2.12-.42-1.1-.4-1.92-1.22-2.25-2.34-.5-1.89-.06-3.99,1.96-4.84-1.13-.47-1.9-1.45-2.04-2.67-.22-1.89.34-3.61,2.2-4.37.72-.3,1.5-.48,2.31-.48h7.96s0,2.63,0,2.63h-7.85c-.59.1-1.15.19-1.54.68-.51.65-.55,1.66-.06,2.33.34.48.9.57,1.46.68h7.87s0,2.41,0,2.41h-7.74c-.59.08-1.18.15-1.58.62-.54.64-.58,1.68-.05,2.39Z"/>
        <path class="cls-1" d="M98.53,32.57h-8.64s0-2.64,0-2.64h8.68c.55,0,1.08-.25,1.42-.63.36-.4.43-.94.4-1.46-.07-1.31-1.22-1.67-2.36-1.67h-3.76c-.85-.01-1.66-.17-2.43-.5-2.1-.9-2.53-3.34-2.04-5.33s2.26-2.84,4.21-2.9h7.87s.01,2.65.01,2.65h-8.06c-.9.13-1.52.69-1.57,1.59-.03.54.07,1.11.51,1.49.38.33.92.48,1.44.49l4.11.02c1.89,0,3.87.76,4.46,2.74s.23,4.63-1.88,5.62c-.75.35-1.5.53-2.37.53Z"/>
        <polygon class="cls-1" points="54.63 32.56 51.97 32.57 51.97 20.09 47.59 20.08 47.6 17.44 59 17.44 59 20.09 54.63 20.09 54.63 32.56"/>
        <path class="cls-1" d="M87.85,29.92v2.65s-6.27,0-6.27,0c-.88,0-1.71-.17-2.51-.49-1.86-.75-2.73-2.57-2.73-4.51v-10.13s2.62,0,2.62,0l.02,10.21c0,1.04.73,1.85,1.66,2.09.45.12.88.17,1.34.17h5.87Z"/>
        <path class="cls-1" d="M70.01,18.95c-.64-1.69-2.4-1.93-3.98-1.7-.94.14-1.77.72-2.13,1.65l-5.36,13.66h2.88s1.1-2.77,1.1-2.77h8.68s1.03,2.78,1.03,2.78h2.91s-5.13-13.62-5.13-13.62ZM63.55,27.14l2.58-6.62c.12-.32.32-.56.6-.61.36-.07.68.02.89.34l2.58,6.89h-6.64Z"/>
        <path class="cls-1" d="M115.98,18.89c-.33-.89-1.12-1.46-2.01-1.62-1.55-.27-3.43-.03-4.08,1.64l-5.35,13.66h2.89s1.08-2.76,1.08-2.76h8.68s1.05,2.78,1.05,2.78h2.9s-5.16-13.69-5.16-13.69ZM109.55,27.15l2.58-6.62c.13-.34.33-.59.65-.63.35-.04.67.05.85.39l2.56,6.85h-6.64Z"/>
      </g>
    </g>
  </g>
</svg>