<?xml version="1.0" encoding="UTF-8"?>
<svg id="Capa_2" data-name="Capa 2" xmlns="http://www.w3.org/2000/svg" viewBox="0 0 130 50">
  <defs>
    <style>
      .cls-1 {
        fill: #fff;
        opacity: 0;
      }

      .cls-2 {
        fill: #9c9b9b;
      }

      .cls-3 {
        fill: #b00932;
      }
    </style>
  </defs>
  <g id="Capa_1-2" data-name="Capa 1">
    <g>
      <rect class="cls-1" width="130" height="50"/>
      <g>
        <path class="cls-3" d="M69.51,11.06v5.98h-1.43l.09-4.26.02-.6-.05.21c-.08.34-.09.38-.15.64l-1.13,4.01h-1.29l-1.08-3.85-.26-1.07c.02.47.02.58.05,1.14l.08,3.77h-1.45v-5.98h2.18l.92,3.35.21.96c.09-.41.09-.46.16-.74l.96-3.57h2.18Z"/>
        <path class="cls-3" d="M70.66,13.87c.02-.31.07-.67.47-.98.41-.32.93-.39,1.45-.39.54,0,1.85.13,1.85,1.27v2.58c0,.47.03.54.13.69h-1.28v-.41c-.33.25-.7.53-1.35.53-1.01,0-1.45-.73-1.45-1.35,0-.71.57-1.12.93-1.27.35-.15,1.19-.31,1.74-.41v-.24c-.02-.2-.03-.54-.5-.54-.58,0-.65.36-.69.52h-1.3ZM72.31,15.2c-.22.09-.56.21-.56.55,0,.21.19.45.49.45.16,0,.31-.06.45-.15.43-.27.45-.68.46-1.14l-.84.28Z"/>
        <path class="cls-3" d="M75.84,15.55c.35.35.8.61,1.29.61.31,0,.79-.1.79-.43,0-.15-.09-.21-.17-.26-.19-.1-.5-.13-.75-.17-.19-.03-.4-.07-.59-.13-.27-.08-.54-.19-.73-.38-.2-.19-.33-.5-.33-.83,0-.73.62-1.48,1.86-1.48,1.04,0,1.67.45,1.97.66l-.8.75c-.42-.32-.81-.44-1.11-.44-.51,0-.62.2-.62.33,0,.26.28.3.7.38.89.16,1.92.4,1.92,1.45s-1.05,1.55-2.09,1.55c-1.23,0-1.86-.59-2.14-.86l.82-.75Z"/>
        <path class="cls-3" d="M80.25,15.55c.36.35.8.61,1.29.61.31,0,.79-.1.79-.43,0-.15-.09-.21-.17-.26-.19-.1-.5-.13-.75-.17-.19-.03-.4-.07-.59-.13-.27-.08-.54-.19-.74-.38-.19-.19-.33-.5-.33-.83,0-.73.63-1.48,1.86-1.48,1.04,0,1.67.45,1.97.66l-.8.75c-.41-.32-.8-.44-1.11-.44-.51,0-.63.2-.63.33,0,.26.28.3.7.38.89.16,1.92.4,1.92,1.45s-1.05,1.55-2.09,1.55c-1.23,0-1.86-.59-2.14-.86l.82-.75Z"/>
        <path class="cls-3" d="M84.42,13.87c.02-.31.07-.67.47-.98.41-.32.93-.39,1.45-.39.54,0,1.85.13,1.85,1.27v2.58c0,.47.02.54.13.69h-1.28v-.41c-.33.25-.7.53-1.35.53-1.02,0-1.45-.73-1.45-1.35,0-.71.57-1.12.93-1.27.36-.15,1.2-.31,1.75-.41v-.24c-.02-.2-.04-.54-.5-.54-.58,0-.65.36-.69.52h-1.3ZM86.07,15.2c-.22.09-.56.21-.56.55,0,.21.19.45.49.45.16,0,.31-.06.45-.15.43-.27.45-.68.46-1.14l-.84.28Z"/>
        <path class="cls-3" d="M93.23,16c-.16.25-.34.53-.69.79-.34.24-.77.4-1.27.4-.85,0-2.19-.51-2.19-2.31,0-1.29.75-2.37,2.22-2.37.49,0,1.33.13,1.89,1.06l-.97.55c-.08-.16-.16-.31-.37-.46-.13-.09-.29-.15-.49-.15-.7,0-.94.81-.94,1.34,0,.58.29,1.32.98,1.32.07,0,.39,0,.66-.31.11-.13.15-.23.2-.35l.98.51Z"/>
        <path class="cls-3" d="M94.74,11.05v2.03c.19-.18.57-.58,1.27-.58.32,0,.68.09.94.31.39.33.46.74.46,1.32v2.91h-1.3v-2.31c0-.35,0-.52-.06-.68-.13-.4-.47-.44-.61-.44-.23,0-.42.11-.53.26-.17.23-.17.59-.17.97v2.2h-1.3v-5.99h1.3Z"/>
        <path class="cls-3" d="M101.19,12.62h1.3v4.42h-1.3v-.42c-.13.14-.2.23-.44.35-.26.14-.55.2-.84.2s-.82-.04-1.13-.47c-.23-.32-.27-.58-.27-1.3v-2.78h1.31v2.75c0,.19,0,.39.1.52.08.1.26.22.52.22.08,0,.26,0,.45-.11.28-.17.29-.39.3-.63v-2.75Z"/>
        <path class="cls-3" d="M103.89,15.55c.36.35.8.61,1.29.61.31,0,.79-.1.79-.43,0-.15-.09-.21-.17-.26-.19-.1-.5-.13-.75-.17-.2-.03-.4-.07-.59-.13-.27-.08-.54-.19-.74-.38-.19-.19-.33-.5-.33-.83,0-.73.63-1.48,1.86-1.48,1.04,0,1.67.45,1.97.66l-.8.75c-.42-.32-.8-.44-1.11-.44-.51,0-.63.2-.63.33,0,.26.28.3.7.38.89.16,1.92.4,1.92,1.45s-1.05,1.55-2.09,1.55c-1.23,0-1.86-.59-2.14-.86l.82-.75Z"/>
        <path class="cls-3" d="M112.21,15.91c-.15.23-.31.45-.54.66-.38.36-.96.63-1.67.63-1.31,0-2.24-.84-2.24-2.29,0-1.07.53-2.44,2.27-2.44.26,0,1.03.02,1.59.63.58.62.61,1.48.63,1.98h-3.16c0,.55.3,1.1,1.01,1.1s.96-.47,1.12-.78l.98.5ZM110.91,14.28c-.02-.19-.06-.43-.25-.63-.16-.16-.41-.24-.63-.24-.31,0-.53.15-.66.29-.18.19-.22.4-.26.58h1.8Z"/>
        <path class="cls-3" d="M113.17,11.34h1.3v1.38h.86v.8h-.86v1.99c0,.27,0,.5.34.5l.47-.02v1.01c-.28.04-.45.07-.69.07-.45,0-.94-.03-1.22-.43-.18-.26-.19-.58-.19-1v-2.13h-.65v-.8h.65v-1.37Z"/>
        <path class="cls-3" d="M115.83,11.34h1.3v1.38h.85v.8h-.86v1.99c0,.27,0,.5.34.5l.47-.02v1.01c-.28.04-.45.07-.69.07-.45,0-.94-.03-1.22-.43-.18-.26-.19-.58-.19-1v-2.13h-.64v-.8h.64v-1.37Z"/>
        <path class="cls-3" d="M118.9,15.55c.36.35.8.61,1.29.61.31,0,.79-.1.79-.43,0-.15-.09-.21-.17-.26-.19-.1-.5-.13-.75-.17-.19-.03-.4-.07-.59-.13-.27-.08-.54-.19-.73-.38-.2-.19-.33-.5-.33-.83,0-.73.63-1.48,1.86-1.48,1.04,0,1.67.45,1.97.66l-.81.75c-.41-.32-.8-.44-1.11-.44-.51,0-.63.2-.63.33,0,.26.28.3.7.38.89.16,1.92.4,1.92,1.45s-1.05,1.55-2.09,1.55c-1.23,0-1.86-.59-2.14-.86l.82-.75Z"/>
        <rect class="cls-3" x="62.9" y="21.22" width="1.49" height="5.98"/>
        <path class="cls-3" d="M66.89,23.18c.13-.13.21-.24.44-.35.2-.09.49-.16.8-.16.26,0,.56.05.79.18.47.24.58.64.58,1.33v3.02h-1.29v-2.49c0-.4,0-.54-.06-.66-.1-.24-.33-.34-.58-.34-.69,0-.69.55-.69,1.1v2.39h-1.3v-4.41h1.31v.39Z"/>
        <path class="cls-3" d="M70.9,25.71c.36.35.8.61,1.29.61.31,0,.79-.1.79-.43,0-.15-.1-.21-.17-.25-.19-.1-.5-.13-.75-.17-.19-.03-.4-.08-.59-.13-.27-.08-.54-.19-.74-.38-.19-.19-.33-.5-.33-.83,0-.73.63-1.48,1.86-1.48,1.04,0,1.67.45,1.97.66l-.8.75c-.42-.32-.81-.44-1.11-.44-.51,0-.63.2-.63.33,0,.25.28.3.7.38.89.16,1.92.4,1.92,1.45s-1.05,1.55-2.09,1.55c-1.23,0-1.86-.59-2.14-.85l.82-.75Z"/>
        <path class="cls-3" d="M75.24,21.5h1.3v1.38h.85v.8h-.86v1.99c0,.27,0,.5.34.5l.47-.02v1.01c-.28.04-.45.07-.69.07-.45,0-.94-.02-1.22-.43-.18-.26-.19-.58-.19-1v-2.13h-.64v-.79h.64v-1.37Z"/>
        <path class="cls-3" d="M78.1,21.21h1.29v1.01h-1.29v-1.01ZM78.1,22.77h1.29v4.43h-1.29v-4.43Z"/>
        <path class="cls-3" d="M80.71,21.5h1.3v1.38h.85v.8h-.86v1.99c0,.27,0,.5.34.5l.47-.02v1.01c-.28.04-.45.07-.69.07-.45,0-.94-.02-1.22-.43-.18-.26-.19-.58-.19-1v-2.13h-.64v-.79h.64v-1.37Z"/>
        <path class="cls-3" d="M86.19,22.78h1.3v4.42h-1.3v-.42c-.13.14-.2.23-.44.34-.26.14-.55.2-.84.2s-.82-.04-1.13-.47c-.23-.32-.27-.58-.27-1.3v-2.78h1.31v2.74c0,.19,0,.39.1.52.08.1.26.22.52.22.08,0,.26,0,.45-.11.28-.17.29-.39.3-.62v-2.75Z"/>
        <path class="cls-3" d="M88.83,21.5h1.29v1.38h.86v.8h-.86v1.99c0,.27,0,.5.34.5l.46-.02v1.01c-.28.04-.45.07-.68.07-.45,0-.94-.02-1.22-.43-.18-.26-.19-.58-.19-1v-2.13h-.65v-.79h.65v-1.37Z"/>
        <path class="cls-3" d="M95.79,26.08c-.15.23-.3.45-.53.66-.38.36-.96.62-1.67.62-1.31,0-2.24-.84-2.24-2.28,0-1.07.53-2.44,2.27-2.44.26,0,1.02.03,1.59.64.57.62.61,1.48.62,1.98h-3.16c0,.55.3,1.1,1.01,1.1s.96-.47,1.12-.78l.98.5ZM94.5,24.44c-.02-.19-.06-.43-.24-.63-.16-.16-.41-.24-.64-.24-.31,0-.53.15-.66.29-.18.19-.22.4-.26.58h1.8Z"/>
        <path class="cls-3" d="M103.34,24.98c0,1.12-.65,2.35-2.37,2.35-1.25,0-2.38-.71-2.38-2.35,0-1.35.86-2.43,2.55-2.34,1.8.1,2.2,1.53,2.2,2.34M100.12,24.11c-.16.26-.22.56-.22.86,0,.7.34,1.32,1.07,1.32s1.05-.57,1.05-1.26c0-.49-.12-.87-.37-1.11-.27-.26-.58-.26-.76-.25-.37.03-.59.15-.77.43"/>
        <path class="cls-3" d="M104.4,22.34c0-.22.02-.52.19-.75.16-.22.53-.45,1.14-.45.26,0,.52.04.78.08v.97h-.31c-.49,0-.52.1-.51.69h.87v.8h-.86v3.52h-1.3v-3.52h-.69v-.8h.7v-.54Z"/>
        <polygon class="cls-3" points="61.37 31.38 65.98 31.38 65.98 32.56 64.43 32.56 64.43 37.36 62.93 37.36 62.93 32.56 61.37 32.56 61.37 31.38"/>
        <path class="cls-3" d="M70.09,36.24c-.15.23-.3.45-.54.66-.38.36-.96.63-1.67.63-1.31,0-2.24-.84-2.24-2.29,0-1.07.53-2.44,2.27-2.44.26,0,1.02.02,1.59.63.58.62.61,1.48.63,1.98h-3.16c0,.55.3,1.1,1.01,1.1s.96-.47,1.12-.78l.98.5ZM68.79,34.6c-.02-.19-.06-.43-.24-.63-.16-.16-.41-.25-.64-.25-.31,0-.53.15-.66.29-.18.19-.22.4-.26.58h1.8Z"/>
        <path class="cls-3" d="M74.76,36.32c-.16.26-.34.53-.69.79-.34.24-.77.4-1.27.4-.85,0-2.19-.51-2.19-2.31,0-1.29.75-2.37,2.22-2.37.49,0,1.33.13,1.89,1.06l-.97.55c-.08-.16-.16-.31-.37-.47-.13-.09-.29-.15-.49-.15-.7,0-.94.8-.94,1.34,0,.59.29,1.32.98,1.32.07,0,.39,0,.66-.31.11-.13.15-.23.19-.35l.98.51Z"/>
        <path class="cls-3" d="M76.26,31.38v2.03c.19-.19.57-.58,1.27-.58.32,0,.68.09.94.31.39.33.46.75.46,1.32v2.9h-1.29v-2.31c0-.36,0-.53-.06-.68-.13-.4-.47-.44-.61-.44-.23,0-.42.11-.54.26-.17.23-.17.59-.17.97v2.2h-1.3v-5.98h1.3Z"/>
        <path class="cls-3" d="M81.4,33.34c.13-.13.21-.24.44-.35.2-.09.49-.16.8-.16.26,0,.56.05.79.18.47.25.58.64.58,1.33v3.02h-1.29v-2.49c0-.4,0-.54-.06-.66-.1-.24-.33-.34-.58-.34-.69,0-.69.55-.69,1.1v2.39h-1.31v-4.41h1.31v.39Z"/>
        <path class="cls-3" d="M89.64,35.14c0,1.12-.65,2.35-2.37,2.35-1.25,0-2.38-.71-2.38-2.35,0-1.35.85-2.43,2.55-2.34,1.8.1,2.2,1.53,2.2,2.34M86.42,34.27c-.16.25-.22.56-.22.86,0,.7.34,1.32,1.07,1.32s1.05-.57,1.05-1.26c0-.49-.12-.87-.37-1.11-.27-.25-.58-.26-.76-.25-.37.03-.59.15-.77.43"/>
        <rect class="cls-3" x="90.48" y="31.38" width="1.3" height="5.98"/>
        <path class="cls-3" d="M97.4,35.14c0,1.12-.65,2.35-2.37,2.35-1.25,0-2.38-.71-2.38-2.35,0-1.35.86-2.43,2.55-2.34,1.81.1,2.2,1.53,2.2,2.34M94.18,34.27c-.16.25-.22.56-.22.86,0,.7.34,1.32,1.07,1.32s1.05-.57,1.05-1.26c0-.49-.12-.87-.37-1.11-.27-.25-.58-.26-.76-.25-.37.03-.59.15-.77.43"/>
        <path class="cls-3" d="M100.93,36.78c-.26.17-.57.37-1.17.37-.37,0-.72-.09-1.01-.29-.59-.38-.82-1.07-.82-1.83,0-.89.42-2.17,1.88-2.17.68,0,.99.3,1.18.48v-.42h1.22v4.25c-.02.48-.03,1.05-.68,1.42-.45.27-1.11.34-1.51.34-.88,0-1.46-.31-1.69-.55-.35-.34-.34-.79-.34-1.03h1.35c.02.2.03.47.38.64.09.04.21.09.41.09.79,0,.79-.47.79-.83v-.47ZM99.28,35.03c0,.37.02,1.14.83,1.14.66,0,.81-.52.81-1.14,0-.21-.02-.65-.16-.86-.1-.16-.34-.34-.71-.32-.62.03-.77.56-.77,1.19"/>
        <path class="cls-3" d="M107.02,32.94l-1.56,4.78c-.1.29-.19.56-.42.8-.3.33-.6.35-.94.36h-.94v-1.03h.46c.21,0,.54,0,.54-.32,0-.11-.03-.22-.06-.31l-1.32-4.27h1.39l.73,3.17.73-3.17h1.39Z"/>
        <path class="cls-3" d="M43.79,11.06h14.61v5.25h-14.61v-5.25ZM16.72,11.06h5.54v17.93h-5.54V11.06ZM25.76,11.06h5.54v26.23h-5.54V11.06ZM7.69,11.06h5.54v26.23h-5.54V11.06ZM43.83,19.37h5.54v17.93h-5.54v-17.93ZM34.76,11.06h5.57v5.25h-5.57v-5.25Z"/>
        <rect class="cls-2" x="34.81" y="19.34" width="5.54" height="17.93"/>
      </g>
    </g>
  </g>
</svg>