<?xml version="1.0" encoding="UTF-8"?>
<svg id="Capa_2" xmlns="http://www.w3.org/2000/svg" version="1.1" viewBox="0 0 130 50">
  <!-- Generator: Adobe Illustrator 30.1.0, SVG Export Plug-In . SVG Version: 2.1.1 Build 89)  -->
  <defs>
    <style>
      .st0, .st1 {
        fill: #333;
      }

      .st1 {
        fill-opacity: 0;
      }
    </style>
  </defs>
  <rect class="st1" width="130" height="50"/>
  <g id="Layer_1">
    <g id="Nissan_Badge">
      <path class="st0" d="M69.4,26.8s-.2,0-.3,0h-5.4v1.2h5.5s.4,0,.4,0c1.1-.1,1.6-1,1.6-1.9s-.5-1.7-1.6-1.8c-.2,0-.4,0-.4,0h-3.6c-.2,0-.3,0-.4,0-.3,0-.4-.3-.4-.5s0-.4.4-.5c0,0,.2,0,.4,0h5.2v-1.2h-5.3c-.2,0-.4,0-.5,0-.9.1-1.5.9-1.5,1.8s.5,1.6,1.5,1.8c.2,0,.4,0,.6,0h3.5c0,0,.2,0,.2,0,.4,0,.5.4.5.6s-.2.5-.5.6h0Z"/>
      <path class="st0" d="M59.1,26.8s-.2,0-.3,0h-5.4v1.2h5.5s.4,0,.4,0c1.1-.1,1.6-1,1.6-1.9s-.5-1.7-1.5-1.8c-.2,0-.4,0-.4,0h-3.6c-.2,0-.3,0-.4,0-.3,0-.4-.3-.4-.5s0-.4.4-.5c0,0,.2,0,.4,0h5.2v-1.2h-5.3c-.2,0-.4,0-.5,0-.9.1-1.5.9-1.5,1.8s.5,1.6,1.5,1.8c.2,0,.5,0,.6,0h3.5c0,0,.2,0,.2,0,.4,0,.5.4.5.6s-.2.5-.5.6h0Z"/>
      <rect class="st0" x="49.3" y="21.9" width="1.4" height="6.1"/>
      <polygon class="st0" points="46.3 28.1 46.3 21.9 44.9 21.9 44.9 26.5 40.4 21.9 38.7 21.9 38.7 28.1 40 28.1 40 23.5 44.6 28.1 46.3 28.1"/>
      <polygon class="st0" points="90 21.9 90 26.5 85.5 21.9 83.7 21.9 83.7 28.1 85.1 28.1 85.1 23.5 89.6 28.1 91.3 28.1 91.3 21.9 90 21.9"/>
      <path class="st0" d="M76.7,21.9l-3.8,6.1h1.7l.7-1.1h4.5l.7,1.1h1.6l-3.8-6.1h-1.5,0ZM78.9,25.8h-3.1l1.5-2.5,1.5,2.5h0Z"/>
      <path class="st0" d="M46.2,18.4c2.7-8,10.3-13.4,18.8-13.4s16.1,5.4,18.8,13.4h0c0,0,6,0,6,0v-.7l-2.5-.3c-1.5-.2-1.9-.9-2.3-1.7v-.2c-3.7-7.7-11.5-12.6-20-12.6s-16.3,5-19.9,12.6v.2c-.5.9-.8,1.5-2.4,1.7l-2.5.3v.7h6s0,0,0,0Z"/>
      <path class="st0" d="M83.8,31.5h0c-2.7,8.1-10.3,13.4-18.8,13.4s-16.1-5.4-18.8-13.4h0c0,0-6,0-6,0v.7l2.5.3c1.5.2,1.9.9,2.3,1.7v.2c3.7,7.7,11.5,12.6,20,12.6s16.3-5,19.9-12.6v-.2c.5-.9.8-1.5,2.4-1.7l2.5-.3v-.7s-6,0-6,0Z"/>
    </g>
  </g>
</svg>