<?xml version="1.0" encoding="UTF-8"?>
<svg id="Capa_2" data-name="Capa 2" xmlns="http://www.w3.org/2000/svg" viewBox="0 0 130 50">
  <defs>
    <style>
      .cls-1 {
        fill: #0d9dda;
      }

      .cls-2, .cls-3 {
        fill: #014486;
      }

      .cls-4 {
        fill: #fff;
        opacity: 0;
      }

      .cls-3 {
        fill-rule: evenodd;
      }
    </style>
  </defs>
  <g id="Capa_1-2" data-name="Capa 1">
    <g>
      <rect class="cls-4" width="130" height="50"/>
      <g>
        <path class="cls-1" d="M22.6,19.45c.97-.99,2.31-1.6,3.8-1.6,1.98,0,3.71,1.08,4.62,2.69.8-.35,1.68-.55,2.61-.55,3.57,0,6.46,2.86,6.46,6.4s-2.89,6.4-6.46,6.4c-.44,0-.86-.05-1.27-.12-.81,1.42-2.35,2.37-4.12,2.37-.74,0-1.44-.17-2.06-.47-.82,1.89-2.73,3.22-4.96,3.22s-4.3-1.44-5.05-3.46c-.33.07-.67.11-1.03.11-2.76,0-5-2.22-5-4.96,0-1.83,1.01-3.44,2.5-4.3-.31-.7-.48-1.46-.48-2.27,0-3.15,2.61-5.71,5.82-5.71,1.89,0,3.56.89,4.62,2.25Z"/>
        <path class="cls-2" d="M44.79,30.9c-.06.17.02.2.05.23.19.14.38.23.57.34,1.02.54,1.98.7,2.99.7,2.05,0,3.32-1.09,3.32-2.84v-.03c0-1.62-1.43-2.21-2.78-2.64l-.17-.05c-1.02-.33-1.89-.61-1.89-1.28v-.03c0-.57.52-.99,1.3-.99.89,0,1.92.3,2.6.67,0,0,.2.13.27-.06.04-.11.38-1.02.42-1.12.04-.11-.03-.19-.1-.23-.77-.47-1.83-.79-2.93-.79h-.2c-1.87,0-3.18,1.13-3.18,2.75v.03c0,1.7,1.45,2.27,2.79,2.65l.22.07c.99.3,1.83.56,1.83,1.25v.03c0,.64-.55,1.11-1.44,1.11-.34,0-1.45,0-2.64-.76-.14-.08-.23-.14-.33-.21-.06-.04-.2-.1-.27.09l-.4,1.12h0Z"/>
        <path class="cls-2" d="M74.74,30.9c-.06.17.02.2.05.23.19.14.38.23.57.34,1.02.54,1.98.7,2.99.7,2.05,0,3.32-1.09,3.32-2.84v-.03c0-1.62-1.43-2.21-2.78-2.64l-.17-.05c-1.02-.33-1.89-.61-1.89-1.28v-.03c0-.57.52-.99,1.3-.99.88,0,1.92.3,2.6.67,0,0,.2.13.27-.06.04-.11.38-1.02.42-1.12.04-.11-.03-.19-.1-.23-.77-.47-1.83-.79-2.93-.79h-.2c-1.87,0-3.18,1.13-3.18,2.75v.03c0,1.7,1.45,2.27,2.79,2.65l.22.07c.99.3,1.83.56,1.83,1.25v.03c0,.64-.55,1.11-1.44,1.11-.34,0-1.45,0-2.64-.76-.14-.08-.23-.14-.33-.21-.04-.02-.21-.09-.27.09l-.4,1.12h0Z"/>
        <path class="cls-2" d="M96.89,25.63c-.17-.57-.43-1.07-.78-1.49-.35-.42-.79-.76-1.31-1s-1.14-.36-1.83-.36-1.31.12-1.83.36c-.52.24-.96.58-1.31,1-.35.42-.61.92-.78,1.49-.17.56-.25,1.18-.25,1.83s.08,1.27.25,1.83c.17.57.43,1.07.78,1.49.35.42.79.75,1.31.99.52.23,1.14.36,1.83.36s1.31-.12,1.83-.36c.52-.23.96-.57,1.31-.99.35-.42.61-.92.78-1.49.17-.56.25-1.18.25-1.83,0-.65-.08-1.27-.25-1.83ZM95.18,27.48c0,.99-.18,1.77-.55,2.33-.36.55-.9.81-1.67.81s-1.3-.27-1.66-.81c-.36-.55-.54-1.33-.54-2.33s.18-1.77.54-2.31.89-.8,1.66-.8,1.3.27,1.67.8c.36.55.55,1.32.55,2.31Z"/>
        <path class="cls-3" d="M110.91,30.34c-.05-.17-.22-.11-.22-.11-.25.1-.52.18-.8.23-.29.05-.6.07-.93.07-.83,0-1.49-.24-1.96-.74-.47-.48-.74-1.27-.74-2.33,0-.97.23-1.69.66-2.25.42-.55,1.05-.83,1.89-.83.7,0,1.24.08,1.8.26,0,0,.13.06.2-.11.15-.42.26-.71.42-1.17.05-.13-.07-.19-.11-.2-.22-.09-.74-.23-1.14-.29-.37-.05-.8-.08-1.28-.08-.72,0-1.36.12-1.9.36s-1.01.58-1.37,1c-.36.42-.64.92-.83,1.49-.19.56-.28,1.18-.28,1.84,0,1.42.38,2.56,1.14,3.4.76.84,1.89,1.27,3.37,1.27.87,0,1.77-.17,2.42-.43,0,0,.12-.06.07-.2l-.42-1.16h0Z"/>
        <path class="cls-3" d="M119.64,25.32c-.14-.55-.5-1.1-.74-1.35-.37-.4-.74-.68-1.1-.83-.47-.2-1.04-.33-1.66-.33-.72,0-1.38.12-1.91.37-.53.25-.98.59-1.33,1.02-.35.42-.61.92-.79,1.5-.17.57-.25,1.19-.25,1.84s.09,1.29.26,1.85c.17.56.45,1.06.84,1.47.38.42.87.74,1.45.96.58.22,1.29.34,2.1.34,1.67,0,2.55-.38,2.91-.58.07-.04.12-.1.05-.27l-.38-1.06c-.06-.16-.22-.11-.22-.11-.42.15-1,.43-2.37.43-.89,0-1.56-.27-1.98-.68s-.64-1.05-.67-1.92h5.77s.15,0,.17-.14c.03-.08.22-1.2-.15-2.5h0ZM113.9,26.52c.08-.55.23-1.01.46-1.36.36-.55.89-.84,1.65-.84s1.26.3,1.62.84c.23.36.34.83.38,1.36h-4.11Z"/>
        <path class="cls-3" d="M73.35,25.32c-.14-.55-.5-1.1-.74-1.35-.37-.4-.74-.68-1.1-.83-.47-.2-1.04-.33-1.66-.33-.72,0-1.38.12-1.91.37-.53.25-.98.59-1.33,1.02-.35.42-.61.92-.78,1.5-.17.57-.25,1.19-.25,1.84s.09,1.29.27,1.85.45,1.06.83,1.47c.38.42.87.74,1.45.96.58.22,1.29.34,2.1.34,1.67,0,2.55-.38,2.91-.58.06-.04.12-.1.05-.27l-.38-1.06c-.06-.16-.22-.11-.22-.11-.42.15-1,.43-2.37.43-.89,0-1.56-.27-1.98-.68s-.64-1.05-.67-1.92h5.78s.15,0,.17-.14c.02-.08.2-1.2-.17-2.5ZM67.61,26.52c.08-.55.23-1.01.46-1.36.36-.55.89-.84,1.65-.84s1.26.3,1.62.84c.23.36.34.83.38,1.36h-4.11Z"/>
        <path class="cls-2" d="M57.41,26.25c-.23-.02-.54-.02-.9-.02-.49,0-.98.06-1.42.18-.45.12-.86.31-1.2.56-.35.25-.64.57-.84.95-.2.38-.31.83-.31,1.33s.09.95.27,1.32c.17.36.43.67.76.9.33.23.72.41,1.17.51.45.11.97.16,1.53.16.59,0,1.18-.05,1.76-.14.57-.1,1.27-.23,1.45-.28.2-.05.41-.11.41-.11.14-.04.13-.19.13-.19v-5.29c0-1.16-.31-2.02-.92-2.55-.61-.53-1.5-.8-2.66-.8-.43,0-1.13.06-1.55.14,0,0-1.26.24-1.78.65,0,0-.11.07-.05.23l.41,1.1c.05.14.19.1.19.1,0,0,.05-.02.1-.05,1.11-.61,2.52-.58,2.52-.58.62,0,1.11.12,1.43.37.32.24.48.61.48,1.38v.24c-.48-.08-.94-.11-.95-.12h0ZM55.11,30.31c-.23-.18-.26-.23-.33-.34-.11-.17-.17-.43-.17-.75,0-.51.17-.87.52-1.11,0,0,.5-.43,1.67-.42.83,0,1.57.13,1.57.13v2.63s-.74.16-1.56.21c-1.17.06-1.69-.35-1.69-.35h0Z"/>
        <path class="cls-3" d="M104.03,23.26c.05-.13-.05-.2-.09-.21-.1-.04-.59-.14-.97-.17-.73-.05-1.13.08-1.49.23-.36.16-.76.42-.98.72v-.7c0-.1-.07-.17-.17-.17h-1.48c-.1,0-.17.08-.17.17v8.62c0,.1.08.17.17.17h1.52c.1,0,.17-.08.17-.17v-4.3c0-.58.07-1.15.19-1.52.12-.36.3-.64.51-.85.21-.2.45-.35.71-.43.27-.08.56-.11.78-.11.3,0,.64.08.64.08.11,0,.17-.05.21-.16.1-.24.38-1.04.43-1.2h0Z"/>
        <path class="cls-3" d="M89.78,19.27c-.18-.06-.35-.1-.57-.14s-.48-.06-.78-.06c-1.05,0-1.87.3-2.45.88-.58.58-.97,1.46-1.16,2.62l-.07.39h-1.31s-.16,0-.2.17l-.22,1.2c-.02.11.03.19.19.19h1.27l-1.3,7.24c-.11.58-.22,1.06-.34,1.42-.13.36-.25.63-.4.82-.14.19-.29.33-.53.41-.2.07-.43.1-.68.1-.14,0-.33-.02-.46-.05-.14-.02-.21-.06-.31-.11,0,0-.15-.06-.21.09-.05.12-.39,1.06-.43,1.17-.04.11.02.2.09.23.17.06.3.1.53.15.33.08.59.08.85.08.53,0,1.02-.08,1.42-.22.41-.14.76-.4,1.07-.74.33-.37.55-.77.75-1.3.2-.53.37-1.18.51-1.94l1.3-7.37h1.9s.16,0,.2-.17l.22-1.2c.02-.11-.03-.19-.19-.19h-1.86s.09-.69.3-1.3c.09-.26.26-.47.41-.61.14-.14.3-.24.48-.3s.39-.09.62-.09c.17,0,.34.02.48.05.18.04.25.06.3.08.19.06.21,0,.25-.09l.45-1.21c.04-.12-.08-.17-.11-.2h0Z"/>
        <path class="cls-3" d="M63.95,31.77c0,.1-.07.17-.17.17h-1.53c-.1,0-.17-.08-.17-.17v-12.34c0-.1.07-.17.17-.17h1.53c.1,0,.17.08.17.17v12.34Z"/>
      </g>
    </g>
  </g>
</svg>