<?xml version="1.0" encoding="UTF-8"?>
<svg id="Capa_2" data-name="Capa 2" xmlns="http://www.w3.org/2000/svg" viewBox="0 0 130 50">
  <defs>
    <style>
      .cls-1 {
        fill: #fff;
        opacity: 0;
      }

      .cls-2 {
        fill: #018dfe;
      }

      .cls-3 {
        fill: #00c84c;
      }
    </style>
  </defs>
  <g id="Capa_1-2" data-name="Capa 1">
    <g>
      <rect class="cls-1" width="130" height="50"/>
      <g>
        <g>
          <path class="cls-3" d="M10.75,18.43c-1.6.35-2.98,1.02-4.4,1.9-.28-.75,1.07-2.19,1.6-2.49l1.07-.61,1.6-.9c.32-.18.75-.56,1.12-.59.81-.08,1.57.17,2.3.45,1.01.39,1.98.77,2.75,1.64,0,.01-.23.05-.29.08l-1.05.48-.07.28c-.11.43-1.02-.39-2.38-.38-.76,0-1.48-.03-2.24.14Z"/>
          <path class="cls-3" d="M22.67,21.68h-.9c-.51,0-1.01-.19-1.25-.72l1.97-.02.18.74Z"/>
          <g>
            <path class="cls-3" d="M15.74,13.35s0,0,0,0c0,0,0,0,0,0Z"/>
            <path class="cls-3" d="M28.05,20.22c0-1.31-1.25-2.12-2.22-2.67l-1.5-.86-2.17-1.26c-.36-.21-.7-.37-1.06-.62-.4-.28-.95-.42-1.24-.65-.32-.25-.67-.45-1.24-.58l.54,1.43c.32.84.55,2.12.45,3.07-.46-1.35-1.17-2.6-2.2-3.62-.26-.26-.94-.99-1.26-.77.02-.01.04-.15.03-.17-.06-.11-.33-.22-.44-.17-.04.03-1.91,1.04-2.01,1.19,1.02.52,1.93.89,2.71,1.63.99.93,1.06.83,1.68,2.17l.35.75.7-.39c.17,0,.62-.02.81.07l2.3,1.04c.68.31,1.2.88,1.23,1.74l1.68.77.78.33c.25.11.5.24.74.38-.77.29-.72-.03-1.5.07-.01,0,.54.94,1.03,1.15l-.24,1.11-2.23.89c-1.01.4-2.07.08-2.41-.97-.28-.87.38-1.82,1.06-2.01.07-.02.08-.26.03-.26l-.26.02c-.12,0-.93.35-.98.39-.4.34-.85.61-1.35.78-1.16.4-2.76-.72-2.78-2.27,0-.28.13-.81.29-1.05.44-.69.35-1.62-.37-2.04-.2-.06-.66-.07-.85-.01-.66.19-.83.89-.73,1.5-.15-.19-.23-.6-.41-.7-.79-.46-1.83-.6-2.75-.37-1.16.29-2.24.71-3.14,1.53-.83.75-1.6,1.53-2.36,2.36-.17.18-.26.46-.56.59v5.57c.23-.35.36-.57.51-.86l1.05-2.13.68-1.2s-.06-.14-.06-.15c0,.02.18-.02.2-.05.58-.91,1.54-2.28,2.49-3.05.68-.56,1.69-.98,2.5-1.14.47-.09,1-.02,1.49-.01-.07.17-.26.08-.4.1-1.18.13-2.13.8-2.92,1.67-1.06,1.18-1.47,2.71-1.67,4.28l-.08.67c-.08.68-.06,1.35-.1,2.03l-.11,1.66-.07.94c-.04.47-.17.97-.14,1.45.65.41,1.25.77,1.9,1.1l.43.22c1.25.64.19.25,1.28.75l.42.28c.13-.21.14-.21.07-.04.11.13.22.27.27.23l.16-.16s-.09-.12-.16-.18l.24-.18c.06-.75.06-1.5-.19-2.22l-.92-2.61c-.32-.91-.59-1.84-.7-2.81-.23-2.07,0-2.61.92-4.3.13-.25,1.53-1.95,2.19-1.91l-.64.74c-.38.44-.68.88-.88,1.46-.44,1.29-.47,2.57-.01,3.87.21.59.42,1.15.77,1.66l.69,1.01.78,1.04,1.43,1.9c.78,1.04,1.32,2.16,1.71,3.3l.98-.49c-.01-.08-.04-.27-.04-.23,0,.04.25.07.29.05l2.14-1.24c.36-.21.59-.31.75-.6.03.17.08.09.17-.09-.72-1.08-1.44-1.68-2.51-2.39l-1.08-.7c-.49-.32-.94-.7-1.38-1.04l-.3.16c.09-.15.23-.22.17-.27-.05-.04-.2-.15-.24-.19-1.17-1.19-1.97-1.63-2.5-3.4-.63-2.07.87-3.64.87-3.64l.15.14s-.13.11-.15.14c-.31.57-.34,1.46-.34,2.11,0,.97.64,1.43,1.25,2.01.43.41.8.8,1.4,1.19.67.43,3.09,1.83,3.73,1.67-.03,0,.07.18.11.19.82.26,2.13.73,2.87,1.12.05.02.27,0,.28-.03,0,.03.01.15.01.18l.98.94c.54-.45,1.17-1.23,1.17-2.07v-9.96ZM25.43,28.5c-.24-.49-1.07-.09-2.02-.94.12-.25.15-.37.21-.66l1.59-.63c.06-.02.09-.18.14-.18h.27c.17,0,.38-.1.49-.06.53.19.48,2.04-.68,2.48Z"/>
          </g>
        </g>
        <polygon class="cls-2" points="55.42 19.39 52.59 19.39 52.59 30.64 55.43 30.63 55.42 19.39"/>
        <path class="cls-2" d="M106.4,26.23c-.17-.78-.81-1.32-1.47-1.69-.51-.29-1.26-.42-1.73-.55-.5-.14-.96-.15-1.49-.2l-.82-.08c-.61-.06-1.18-.2-1.8-.12-.24.03-.46-.08-.7-.07-1.14.04-2.26-.01-3.36-.34-.15-.04-.37-.24-.45-.34-.22-.29-.07-.66.18-.88.35-.3.77-.46,1.24-.56.57-.12,1.17-.27,1.77-.29,2.05-.08,2.19-.03,4.11.24.49.07.95.21,1.44.31.45.09.88.32,1.35.23.2-.36.33-.74.49-1.12.1-.22.36-.49.18-.76-.17-.1-.49-.23-.71-.29l-1.28-.32-1.02-.23c-.66-.15-1.33-.15-2.02-.21-1.31-.11-3.23-.02-4.54.2-.45.08-1.54.41-1.97.59-.85.36-1.63.91-2.04,1.73-.47.92-.4,2,.25,2.78.63.76,1.53,1.1,2.47,1.28.4.08.72.21,1.15.18.64-.04,1.57.28,2.42.19.26-.03.51.05.77.06l1.91.03c.53,0,1.01.11,1.52.22.57.12,1.24.27,1.22,1.04,0,.24-.16.46-.37.66-.42.4-.99.55-1.57.65-.29.05-.54.14-.84.16-1.37.09-2.75.13-4.1-.11-.54-.09-1.06-.13-1.58-.24l-.96-.21-1.2-.34c-.18-.05-.58-.33-.73-.06-.28.49-.48,1.04-.72,1.56-.08.17-.04.46.16.49.32.04.59.2.89.27l.94.25c.4.11.8.14,1.2.27.42.13.86.09,1.29.18.44.1.87.2,1.33.16.25-.02.47.05.71.07,1.06.09,2.7,0,3.77-.2,1.72-.31,3.92-1.01,4.63-2.8.22-.56.2-1.22.07-1.81Z"/>
        <path class="cls-2" d="M89.71,19.5c0-.13-.22-.18-.28-.18l-2.28-.02c-.16,0-.27,0-.35.09-.07.09-.04.18-.04.32v5.68c-.02.87-.46,1.72-1.06,2.28-.53.48-1.11.74-1.77.9-1.17.28-2.31.3-3.47-.02-.23-.06-.42-.09-.64-.2-.53-.28-1.08-.57-1.41-1.08-.34-.52-.61-1.04-.61-1.69l-.02-6.06c0-.11-.18-.2-.28-.2-.88,0-1.73-.06-2.6.03-.15.02-.11.33-.11.44v5.66c0,1.59.72,3.14,1.93,4.11.55.44,1.11.82,1.81,1.05.41.13.83.31,1.27.36.52.07,1.01.19,1.53.22,3.36.17,6.98-.63,8.12-4.2l.28-1.61v-5.88Z"/>
        <path class="cls-2" d="M50.74,19.44s-.09-.14-.18-.14c-.86,0-1.69-.04-2.55.02-.24.02-.35.33-.44.5l-.54,1.03-1.57,3.12-1.94,3.8c-.33.64-.66,1.24-.95,1.89-.06.13-.28.44-.42.26-.21-.28-.35-.63-.51-.95l-1.94-3.8-1.95-3.8-.61-1.19c-.15-.3-.27-.61-.53-.85-.92-.02-1.83-.04-2.74.02-.2.01-.04.28,0,.38l5.4,10.57c.09.18.17.42.41.42h5.26c.26-.17.34-.42.48-.7l5.28-10.34c.05-.09.07-.17.03-.22Z"/>
        <path class="cls-2" d="M72.75,23.81c-.22-.18-.27-.4-.26-.64.02-.22-.13-.31-.21-.45-.12-.21-.19-.42-.34-.62-.44-.56-.94-1.06-1.49-1.5l-1.01-.51c-.24-.12-.46-.11-.69-.29-.19-.14-.51,0-.72-.11-.24-.12-.47-.22-.77-.22h-9.26c-.13.16-.02.3-.02.49v10.15c0,.19-.1.31.02.52l8.57-.05,1.71-.24c.29-.04.61-.25.93-.3.11-.02.98-.52,1.03-.55.62-.29,1.02-.84,1.49-1.28.15-.14.13-.27.22-.43.11-.19.26-.34.28-.57,0-.12.3-.22.24-.4-.09-.27.18-.44.21-.65.11-.78.02-1.55.04-2.34ZM69.25,27.46c-.22.19-.44.43-.69.54-.19.08-.34.08-.49.25-.12.14-.45,0-.61.14-.18.14-.36.22-.61.22h-6.28s-.01-7.11-.01-7.11c.15-.03.32-.09.5-.09h4.63c-.38,0,1.38.09.85.13h.13c.25,0,.59-.08.81.09.19.14.37.12.57.2.72.3,1.32.83,1.76,1.48.09.13.26.37.28.5.07.37.16.74.15,1.11-.02,1-.23,1.9-.99,2.55Z"/>
        <path class="cls-2" d="M123.29,29.66c-.22-.43-.45-.56-.48-.65-.08-.34-.35-.57-.55-.84-.11-.14-.12-.35-.26-.51-.42-.45-.65-1.12-1.1-1.67-.38-.47-.65-.99-.99-1.5l-.61-.92-.23-.4-.32-.42c-.11-.15-.16-.28-.24-.42-.06-.12-.21-.25-.29-.38l-.28-.47-1.36-2.04h-2.75s-1.08,1.65-1.08,1.65l-.67,1.04c-.29.45-.57.86-.86,1.31l-1.66,2.55-.56.84c-.53.78-.99,1.53-1.5,2.3l-.58.87c-.12.18-.2.38-.33.57l2.73.03.7-1.2c.11-.18.17-.35.29-.55l.29-.45c.12-.19.34-.34.53-.52h8c.4.01.57.6.77.92l.47.75c.3.48.49,1.02.79,1.02h2.44c.13.01.18-.1.21-.18.03-.09-.49-.68-.51-.73ZM117.56,26.03s.08-.02.11-.04c.11-.07.26.06.19.17,0,0,0,0,0,0-.03.05-.11.15-.23.15l-5.08-.04s-.04,0-.06-.02c-.28-.18-.06-.75.11-.94.14-.16.2-.38.31-.54l.27-.41c-.09.13.63-1.11.56-.96-.03.07.45-.74.48-.78l.55-.9c.09-.14.1-.27.25-.28.48-.02.94,1.15,1.21,1.58l.29.46c.09.15.2.31.28.47l.25.45c.1.19.18.34.3.53l.29.46c.08.12.21.21.19.36"/>
      </g>
    </g>
  </g>
</svg>