<?xml version="1.0" encoding="UTF-8"?>
<svg id="Capa_2" xmlns="http://www.w3.org/2000/svg" version="1.1" viewBox="0 0 1165.3 385.7">
  <!-- Generator: Adobe Illustrator 30.3.0, SVG Export Plug-In . SVG Version: 2.1.1 Build 94)  -->
  <defs>
    <style>
      .st0 {
        fill: #fff;
      }

      .st1 {
        fill: none;
      }

      .st2 {
        fill: #f9cb0d;
      }
    </style>
  </defs>
  <path className="st2" d="M100.1,158c-20.8,0-39.4-9.2-52-23.7v171.3c0,23.2,18.8,42,42,42h969.4c23.2,0,42-18.8,42-42V86.5c0-23.2-18.8-42-42-42H152.9c10.1,12,16.2,27.5,16.2,44.5,0,38.1-30.9,69-69,69Z"/>
  <path d="M361.7,66.8h-196.2c2.4,7,3.7,14.4,3.7,22.2,0,38.1-30.9,69-69,69s-20.1-2.3-28.9-6.4v147.7c0,15.2,12.3,27.5,27.5,27.5h263c15.2,0,27.5-12.3,27.5-27.5V94.3c0-15.2-12.3-27.5-27.5-27.5Z"/>
  <path className="st0" d="M116.2,273.6l66.8-145.4h25.8l66.8,145.4h-32.2l-13.6-31.6h-67.9l-13.4,31.6h-32.4,0ZM195.6,162.2l-22.9,54.9h46.6l-23.3-54.9h-.4ZM288.2,273.6v-145.4h32v145.4h-32Z"/>
  <path className="st2" d="M59.6,85.1v7.5c27,0,37.1,11,37.1,40.4h6.9c0-28.7,10.8-40.4,37.1-40.4v-7.5c-26,0-37.1-12.1-37.1-40.4h-6.9c0,29-10.4,40.4-37.1,40.4Z"/>
  <rect className="st1" y="3.2" width="1143.4" height="389.6"/>
  <g>
    <path d="M402.9,309.6V86.6c0-10.1,0-18.7-8.7-20.8v-1.1h74.5v29.1h-1.1c-2.1-8.7-10.7-8.7-20.8-8.7h-14.5v97.3c11.8,0,20.4,0,22.6-15.6h1.1v52h-1.1c-2.1-15.6-10.7-15.6-22.6-15.6v107.7h14.5c10.1,0,18.7,0,20.8-8.7h1.1v29.1h-74.5v-1.1c8.7-2.1,8.7-10.7,8.7-20.8v.3Z"/>
    <path d="M489.2,309.6V86.6c0-10.1,0-18.7-8.7-20.8v-1.1h39.2l31.6,171.8,2.1,13.9h1.4V86.6c0-10.1,0-18.7-6.9-20.8v-1.1h44v1.1c-8.7,2.1-8.7,10.7-8.7,20.8v244.9h-30.2l-31.6-173.9-2.4-13.9h-1.1v166c0,10.1,0,18.7,6.9,20.8v1.1h-44.4v-1.1c8.7-2.1,8.7-10.7,8.7-20.8h0Z"/>
    <path d="M654,62c28.1,0,41.9,11.1,41.9,34.6v213.1c0,10.1,0,18.7,8.7,20.8v1.1h-45v-1.1c6.9-2.1,6.9-10.7,6.9-20.8v-73.8h-25v73.8c0,10.1,0,18.7,6.9,20.8v1.1h-45v-1.1c8.7-2.1,8.7-10.7,8.7-20.8V96.6c0-23.5,13.9-34.6,41.9-34.6ZM666.5,217.8v-115.7c0-13.9-6.2-18.7-12.5-18.7s-12.5,4.9-12.5,18.7v115.7h25Z"/>
    <path d="M716.4,330.4c8.7-2.1,8.7-10.7,8.7-20.8V86.6c0-10.1,0-18.7-8.7-20.8v-1.1h56.1c17.4,0,31.1,11.1,31.1,34.6v64.1c0,12.8-3.8,22.1-14.2,27.7,13.1,5.2,18.7,15.3,18.7,30.2v75.5c0,23.5-13.9,34.6-31.1,34.6h-60.6v-1.1.2ZM760.5,182.8c11.4,0,15.6-5.9,15.6-24.3v-50.9c0-18.3-4.1-24.3-15.6-24.3h-5.9v99.5h5.9ZM764.9,312.8c7.9,0,13.9-5.9,13.9-24.3v-62.7c0-18.3-5.9-24.3-13.9-24.3h-10.4v111.2h10.4Z"/>
    <path d="M833.9,309.6V86.6c0-10.1,0-18.7-8.7-20.8v-1.1h46.8v1.1c-8.7,2.1-8.7,10.7-8.7,20.8v226.2h12.8c10.1,0,18.7,0,20.8-10.4h1.1v29.1h-72.8v-1.1c8.7-2.1,8.7-10.7,8.7-20.8h0Z"/>
    <path d="M915.9,309.6V86.6c0-10.1,0-18.7-8.7-20.8v-1.1h74.5v29.1h-1.1c-2.1-8.7-10.7-8.7-20.8-8.7h-14.5v97.3c11.8,0,20.4,0,22.6-15.6h1.1v52h-1.1c-2.1-15.6-10.7-15.6-22.6-15.6v107.7h14.5c10.1,0,18.7,0,20.8-8.7h1.1v29.1h-74.5v-1.1c8.7-2.1,8.7-10.7,8.7-20.8v.3Z"/>
    <path d="M993.6,330.4c8.7-2.1,8.7-10.7,8.7-20.8V86.6c0-10.1,0-18.7-8.7-20.8v-1.1h60.6c17.4,0,31.1,11.1,31.1,34.6v197.4c0,23.5-13.9,34.6-31.1,34.6h-60.6v-1.1.2ZM1038.6,312.8c9.7,0,17.4-4.9,17.4-20.8V104.2c0-15.9-7.6-20.8-17.4-20.8h-6.9v229.3h6.9Z"/>
  </g>
</svg>